G04 #@! TF.GenerationSoftware,KiCad,Pcbnew,5.0.2-bee76a0~70~ubuntu14.04.1*
G04 #@! TF.CreationDate,2019-02-12T21:08:15+10:00*
G04 #@! TF.ProjectId,RS232Sniffer,52533233-3253-46e6-9966-6665722e6b69,rev?*
G04 #@! TF.SameCoordinates,Original*
G04 #@! TF.FileFunction,Profile,NP*
%FSLAX46Y46*%
G04 Gerber Fmt 4.6, Leading zero omitted, Abs format (unit mm)*
G04 Created by KiCad (PCBNEW 5.0.2-bee76a0~70~ubuntu14.04.1) date Tue 12 Feb 2019 21:08:15 AEST*
%MOMM*%
%LPD*%
G01*
G04 APERTURE LIST*
%ADD10C,0.200000*%
G04 APERTURE END LIST*
D10*
X62992000Y-117856000D02*
X62992000Y-82804000D01*
X69596000Y-119380000D02*
X64516000Y-119380000D01*
X71120000Y-125984000D02*
X71120000Y-120904000D01*
X152400000Y-127508000D02*
X72644000Y-127508000D01*
X153924000Y-120904000D02*
X153924000Y-125984000D01*
X160528000Y-119380000D02*
X155448000Y-119380000D01*
X162052000Y-82804000D02*
X162052000Y-117856000D01*
X155448000Y-81280000D02*
X160528000Y-81280000D01*
X153924000Y-74676000D02*
X153924000Y-79756000D01*
X72644000Y-73152000D02*
X152400000Y-73152000D01*
X71120000Y-79756000D02*
X71120000Y-74676000D01*
X64516000Y-81280000D02*
X69596000Y-81280000D01*
X71120000Y-74676000D02*
G75*
G02X72644000Y-73152000I1524000J0D01*
G01*
X62992000Y-82804000D02*
G75*
G02X64516000Y-81280000I1524000J0D01*
G01*
X64516000Y-119380000D02*
G75*
G02X62992000Y-117856000I0J1524000D01*
G01*
X72644000Y-127508000D02*
G75*
G02X71120000Y-125984000I0J1524000D01*
G01*
X69596000Y-119380000D02*
G75*
G02X71120000Y-120904000I0J-1524000D01*
G01*
X162052000Y-117856000D02*
G75*
G02X160528000Y-119380000I-1524000J0D01*
G01*
X153924000Y-125984000D02*
G75*
G02X152400000Y-127508000I-1524000J0D01*
G01*
X153924000Y-120904000D02*
G75*
G02X155448000Y-119380000I1524000J0D01*
G01*
X155448000Y-81280000D02*
G75*
G02X153924000Y-79756000I0J1524000D01*
G01*
X160528000Y-81280000D02*
G75*
G02X162052000Y-82804000I0J-1524000D01*
G01*
X152400000Y-73152000D02*
G75*
G02X153924000Y-74676000I0J-1524000D01*
G01*
X71120000Y-79756000D02*
G75*
G02X69596000Y-81280000I-1524000J0D01*
G01*
M02*
