G04 #@! TF.GenerationSoftware,KiCad,Pcbnew,5.0.2-bee76a0~70~ubuntu14.04.1*
G04 #@! TF.CreationDate,2019-02-12T21:08:15+10:00*
G04 #@! TF.ProjectId,RS232Sniffer,52533233-3253-46e6-9966-6665722e6b69,rev?*
G04 #@! TF.SameCoordinates,Original*
G04 #@! TF.FileFunction,Legend,Top*
G04 #@! TF.FilePolarity,Positive*
%FSLAX46Y46*%
G04 Gerber Fmt 4.6, Leading zero omitted, Abs format (unit mm)*
G04 Created by KiCad (PCBNEW 5.0.2-bee76a0~70~ubuntu14.04.1) date Tue 12 Feb 2019 21:08:15 AEST*
%MOMM*%
%LPD*%
G01*
G04 APERTURE LIST*
%ADD10C,0.150000*%
%ADD11C,0.120000*%
%ADD12C,0.010000*%
G04 APERTURE END LIST*
D10*
X155757714Y-83256380D02*
X155757714Y-82256380D01*
X155995809Y-82256380D01*
X156138666Y-82304000D01*
X156233904Y-82399238D01*
X156281523Y-82494476D01*
X156329142Y-82684952D01*
X156329142Y-82827809D01*
X156281523Y-83018285D01*
X156233904Y-83113523D01*
X156138666Y-83208761D01*
X155995809Y-83256380D01*
X155757714Y-83256380D01*
X157329142Y-83161142D02*
X157281523Y-83208761D01*
X157138666Y-83256380D01*
X157043428Y-83256380D01*
X156900571Y-83208761D01*
X156805333Y-83113523D01*
X156757714Y-83018285D01*
X156710095Y-82827809D01*
X156710095Y-82684952D01*
X156757714Y-82494476D01*
X156805333Y-82399238D01*
X156900571Y-82304000D01*
X157043428Y-82256380D01*
X157138666Y-82256380D01*
X157281523Y-82304000D01*
X157329142Y-82351619D01*
X157757714Y-82732571D02*
X158091047Y-82732571D01*
X158233904Y-83256380D02*
X157757714Y-83256380D01*
X157757714Y-82256380D01*
X158233904Y-82256380D01*
X67484761Y-83256380D02*
X67484761Y-82256380D01*
X67722857Y-82256380D01*
X67865714Y-82304000D01*
X67960952Y-82399238D01*
X68008571Y-82494476D01*
X68056190Y-82684952D01*
X68056190Y-82827809D01*
X68008571Y-83018285D01*
X67960952Y-83113523D01*
X67865714Y-83208761D01*
X67722857Y-83256380D01*
X67484761Y-83256380D01*
X68341904Y-82256380D02*
X68913333Y-82256380D01*
X68627619Y-83256380D02*
X68627619Y-82256380D01*
X69246666Y-82732571D02*
X69580000Y-82732571D01*
X69722857Y-83256380D02*
X69246666Y-83256380D01*
X69246666Y-82256380D01*
X69722857Y-82256380D01*
X82233000Y-79779761D02*
X82375857Y-79827380D01*
X82613952Y-79827380D01*
X82709190Y-79779761D01*
X82756809Y-79732142D01*
X82804428Y-79636904D01*
X82804428Y-79541666D01*
X82756809Y-79446428D01*
X82709190Y-79398809D01*
X82613952Y-79351190D01*
X82423476Y-79303571D01*
X82328238Y-79255952D01*
X82280619Y-79208333D01*
X82233000Y-79113095D01*
X82233000Y-79017857D01*
X82280619Y-78922619D01*
X82328238Y-78875000D01*
X82423476Y-78827380D01*
X82661571Y-78827380D01*
X82804428Y-78875000D01*
X83613952Y-79779761D02*
X83518714Y-79827380D01*
X83328238Y-79827380D01*
X83233000Y-79779761D01*
X83185380Y-79684523D01*
X83185380Y-79303571D01*
X83233000Y-79208333D01*
X83328238Y-79160714D01*
X83518714Y-79160714D01*
X83613952Y-79208333D01*
X83661571Y-79303571D01*
X83661571Y-79398809D01*
X83185380Y-79494047D01*
X84233000Y-79827380D02*
X84137761Y-79779761D01*
X84090142Y-79684523D01*
X84090142Y-78827380D01*
X84994904Y-79779761D02*
X84899666Y-79827380D01*
X84709190Y-79827380D01*
X84613952Y-79779761D01*
X84566333Y-79684523D01*
X84566333Y-79303571D01*
X84613952Y-79208333D01*
X84709190Y-79160714D01*
X84899666Y-79160714D01*
X84994904Y-79208333D01*
X85042523Y-79303571D01*
X85042523Y-79398809D01*
X84566333Y-79494047D01*
X85899666Y-79779761D02*
X85804428Y-79827380D01*
X85613952Y-79827380D01*
X85518714Y-79779761D01*
X85471095Y-79732142D01*
X85423476Y-79636904D01*
X85423476Y-79351190D01*
X85471095Y-79255952D01*
X85518714Y-79208333D01*
X85613952Y-79160714D01*
X85804428Y-79160714D01*
X85899666Y-79208333D01*
X86185380Y-79160714D02*
X86566333Y-79160714D01*
X86328238Y-78827380D02*
X86328238Y-79684523D01*
X86375857Y-79779761D01*
X86471095Y-79827380D01*
X86566333Y-79827380D01*
X87661571Y-79827380D02*
X87661571Y-78827380D01*
X87899666Y-78827380D01*
X88042523Y-78875000D01*
X88137761Y-78970238D01*
X88185380Y-79065476D01*
X88233000Y-79255952D01*
X88233000Y-79398809D01*
X88185380Y-79589285D01*
X88137761Y-79684523D01*
X88042523Y-79779761D01*
X87899666Y-79827380D01*
X87661571Y-79827380D01*
X89233000Y-79732142D02*
X89185380Y-79779761D01*
X89042523Y-79827380D01*
X88947285Y-79827380D01*
X88804428Y-79779761D01*
X88709190Y-79684523D01*
X88661571Y-79589285D01*
X88613952Y-79398809D01*
X88613952Y-79255952D01*
X88661571Y-79065476D01*
X88709190Y-78970238D01*
X88804428Y-78875000D01*
X88947285Y-78827380D01*
X89042523Y-78827380D01*
X89185380Y-78875000D01*
X89233000Y-78922619D01*
X89661571Y-79827380D02*
X89661571Y-78827380D01*
X89899666Y-78827380D01*
X90042523Y-78875000D01*
X90137761Y-78970238D01*
X90185380Y-79065476D01*
X90233000Y-79255952D01*
X90233000Y-79398809D01*
X90185380Y-79589285D01*
X90137761Y-79684523D01*
X90042523Y-79779761D01*
X89899666Y-79827380D01*
X89661571Y-79827380D01*
X96877714Y-84780380D02*
X96877714Y-83780380D01*
X97449142Y-84780380D01*
X97449142Y-83780380D01*
X98353904Y-84113714D02*
X98353904Y-84780380D01*
X97925333Y-84113714D02*
X97925333Y-84637523D01*
X97972952Y-84732761D01*
X98068190Y-84780380D01*
X98211047Y-84780380D01*
X98306285Y-84732761D01*
X98353904Y-84685142D01*
X98972952Y-84780380D02*
X98877714Y-84732761D01*
X98830095Y-84637523D01*
X98830095Y-83780380D01*
X99496761Y-84780380D02*
X99401523Y-84732761D01*
X99353904Y-84637523D01*
X99353904Y-83780380D01*
X100639619Y-84780380D02*
X100639619Y-83780380D01*
X100972952Y-84494666D01*
X101306285Y-83780380D01*
X101306285Y-84780380D01*
X101925333Y-84780380D02*
X101830095Y-84732761D01*
X101782476Y-84685142D01*
X101734857Y-84589904D01*
X101734857Y-84304190D01*
X101782476Y-84208952D01*
X101830095Y-84161333D01*
X101925333Y-84113714D01*
X102068190Y-84113714D01*
X102163428Y-84161333D01*
X102211047Y-84208952D01*
X102258666Y-84304190D01*
X102258666Y-84589904D01*
X102211047Y-84685142D01*
X102163428Y-84732761D01*
X102068190Y-84780380D01*
X101925333Y-84780380D01*
X103115809Y-84780380D02*
X103115809Y-83780380D01*
X103115809Y-84732761D02*
X103020571Y-84780380D01*
X102830095Y-84780380D01*
X102734857Y-84732761D01*
X102687238Y-84685142D01*
X102639619Y-84589904D01*
X102639619Y-84304190D01*
X102687238Y-84208952D01*
X102734857Y-84161333D01*
X102830095Y-84113714D01*
X103020571Y-84113714D01*
X103115809Y-84161333D01*
X103972952Y-84732761D02*
X103877714Y-84780380D01*
X103687238Y-84780380D01*
X103592000Y-84732761D01*
X103544380Y-84637523D01*
X103544380Y-84256571D01*
X103592000Y-84161333D01*
X103687238Y-84113714D01*
X103877714Y-84113714D01*
X103972952Y-84161333D01*
X104020571Y-84256571D01*
X104020571Y-84351809D01*
X103544380Y-84447047D01*
X104449142Y-84780380D02*
X104449142Y-84113714D01*
X104449142Y-84208952D02*
X104496761Y-84161333D01*
X104592000Y-84113714D01*
X104734857Y-84113714D01*
X104830095Y-84161333D01*
X104877714Y-84256571D01*
X104877714Y-84780380D01*
X104877714Y-84256571D02*
X104925333Y-84161333D01*
X105020571Y-84113714D01*
X105163428Y-84113714D01*
X105258666Y-84161333D01*
X105306285Y-84256571D01*
X105306285Y-84780380D01*
X137970095Y-116784380D02*
X137970095Y-115784380D01*
X138303428Y-116498666D01*
X138636761Y-115784380D01*
X138636761Y-116784380D01*
X139255809Y-116784380D02*
X139160571Y-116736761D01*
X139112952Y-116689142D01*
X139065333Y-116593904D01*
X139065333Y-116308190D01*
X139112952Y-116212952D01*
X139160571Y-116165333D01*
X139255809Y-116117714D01*
X139398666Y-116117714D01*
X139493904Y-116165333D01*
X139541523Y-116212952D01*
X139589142Y-116308190D01*
X139589142Y-116593904D01*
X139541523Y-116689142D01*
X139493904Y-116736761D01*
X139398666Y-116784380D01*
X139255809Y-116784380D01*
X140017714Y-116117714D02*
X140017714Y-116784380D01*
X140017714Y-116212952D02*
X140065333Y-116165333D01*
X140160571Y-116117714D01*
X140303428Y-116117714D01*
X140398666Y-116165333D01*
X140446285Y-116260571D01*
X140446285Y-116784380D01*
X140922476Y-116784380D02*
X140922476Y-116117714D01*
X140922476Y-115784380D02*
X140874857Y-115832000D01*
X140922476Y-115879619D01*
X140970095Y-115832000D01*
X140922476Y-115784380D01*
X140922476Y-115879619D01*
X141255809Y-116117714D02*
X141636761Y-116117714D01*
X141398666Y-115784380D02*
X141398666Y-116641523D01*
X141446285Y-116736761D01*
X141541523Y-116784380D01*
X141636761Y-116784380D01*
X142112952Y-116784380D02*
X142017714Y-116736761D01*
X141970095Y-116689142D01*
X141922476Y-116593904D01*
X141922476Y-116308190D01*
X141970095Y-116212952D01*
X142017714Y-116165333D01*
X142112952Y-116117714D01*
X142255809Y-116117714D01*
X142351047Y-116165333D01*
X142398666Y-116212952D01*
X142446285Y-116308190D01*
X142446285Y-116593904D01*
X142398666Y-116689142D01*
X142351047Y-116736761D01*
X142255809Y-116784380D01*
X142112952Y-116784380D01*
X142874857Y-116784380D02*
X142874857Y-116117714D01*
X142874857Y-116308190D02*
X142922476Y-116212952D01*
X142970095Y-116165333D01*
X143065333Y-116117714D01*
X143160571Y-116117714D01*
X144112952Y-115784380D02*
X144684380Y-115784380D01*
X144398666Y-116784380D02*
X144398666Y-115784380D01*
X144922476Y-115784380D02*
X145589142Y-116784380D01*
X145589142Y-115784380D02*
X144922476Y-116784380D01*
X79939047Y-116784380D02*
X79939047Y-115784380D01*
X80272380Y-116498666D01*
X80605714Y-115784380D01*
X80605714Y-116784380D01*
X81224761Y-116784380D02*
X81129523Y-116736761D01*
X81081904Y-116689142D01*
X81034285Y-116593904D01*
X81034285Y-116308190D01*
X81081904Y-116212952D01*
X81129523Y-116165333D01*
X81224761Y-116117714D01*
X81367619Y-116117714D01*
X81462857Y-116165333D01*
X81510476Y-116212952D01*
X81558095Y-116308190D01*
X81558095Y-116593904D01*
X81510476Y-116689142D01*
X81462857Y-116736761D01*
X81367619Y-116784380D01*
X81224761Y-116784380D01*
X81986666Y-116117714D02*
X81986666Y-116784380D01*
X81986666Y-116212952D02*
X82034285Y-116165333D01*
X82129523Y-116117714D01*
X82272380Y-116117714D01*
X82367619Y-116165333D01*
X82415238Y-116260571D01*
X82415238Y-116784380D01*
X82891428Y-116784380D02*
X82891428Y-116117714D01*
X82891428Y-115784380D02*
X82843809Y-115832000D01*
X82891428Y-115879619D01*
X82939047Y-115832000D01*
X82891428Y-115784380D01*
X82891428Y-115879619D01*
X83224761Y-116117714D02*
X83605714Y-116117714D01*
X83367619Y-115784380D02*
X83367619Y-116641523D01*
X83415238Y-116736761D01*
X83510476Y-116784380D01*
X83605714Y-116784380D01*
X84081904Y-116784380D02*
X83986666Y-116736761D01*
X83939047Y-116689142D01*
X83891428Y-116593904D01*
X83891428Y-116308190D01*
X83939047Y-116212952D01*
X83986666Y-116165333D01*
X84081904Y-116117714D01*
X84224761Y-116117714D01*
X84320000Y-116165333D01*
X84367619Y-116212952D01*
X84415238Y-116308190D01*
X84415238Y-116593904D01*
X84367619Y-116689142D01*
X84320000Y-116736761D01*
X84224761Y-116784380D01*
X84081904Y-116784380D01*
X84843809Y-116784380D02*
X84843809Y-116117714D01*
X84843809Y-116308190D02*
X84891428Y-116212952D01*
X84939047Y-116165333D01*
X85034285Y-116117714D01*
X85129523Y-116117714D01*
X86796190Y-116784380D02*
X86462857Y-116308190D01*
X86224761Y-116784380D02*
X86224761Y-115784380D01*
X86605714Y-115784380D01*
X86700952Y-115832000D01*
X86748571Y-115879619D01*
X86796190Y-115974857D01*
X86796190Y-116117714D01*
X86748571Y-116212952D01*
X86700952Y-116260571D01*
X86605714Y-116308190D01*
X86224761Y-116308190D01*
X87129523Y-115784380D02*
X87796190Y-116784380D01*
X87796190Y-115784380D02*
X87129523Y-116784380D01*
X129374476Y-80208380D02*
X129041142Y-79732190D01*
X128803047Y-80208380D02*
X128803047Y-79208380D01*
X129183999Y-79208380D01*
X129279238Y-79256000D01*
X129326857Y-79303619D01*
X129374476Y-79398857D01*
X129374476Y-79541714D01*
X129326857Y-79636952D01*
X129279238Y-79684571D01*
X129183999Y-79732190D01*
X128803047Y-79732190D01*
X129755428Y-80160761D02*
X129898285Y-80208380D01*
X130136380Y-80208380D01*
X130231619Y-80160761D01*
X130279238Y-80113142D01*
X130326857Y-80017904D01*
X130326857Y-79922666D01*
X130279238Y-79827428D01*
X130231619Y-79779809D01*
X130136380Y-79732190D01*
X129945904Y-79684571D01*
X129850666Y-79636952D01*
X129803047Y-79589333D01*
X129755428Y-79494095D01*
X129755428Y-79398857D01*
X129803047Y-79303619D01*
X129850666Y-79256000D01*
X129945904Y-79208380D01*
X130183999Y-79208380D01*
X130326857Y-79256000D01*
X130707809Y-79303619D02*
X130755428Y-79256000D01*
X130850666Y-79208380D01*
X131088761Y-79208380D01*
X131183999Y-79256000D01*
X131231619Y-79303619D01*
X131279238Y-79398857D01*
X131279238Y-79494095D01*
X131231619Y-79636952D01*
X130660190Y-80208380D01*
X131279238Y-80208380D01*
X131612571Y-79208380D02*
X132231619Y-79208380D01*
X131898285Y-79589333D01*
X132041142Y-79589333D01*
X132136380Y-79636952D01*
X132183999Y-79684571D01*
X132231619Y-79779809D01*
X132231619Y-80017904D01*
X132183999Y-80113142D01*
X132136380Y-80160761D01*
X132041142Y-80208380D01*
X131755428Y-80208380D01*
X131660190Y-80160761D01*
X131612571Y-80113142D01*
X132612571Y-79303619D02*
X132660190Y-79256000D01*
X132755428Y-79208380D01*
X132993523Y-79208380D01*
X133088761Y-79256000D01*
X133136380Y-79303619D01*
X133183999Y-79398857D01*
X133183999Y-79494095D01*
X133136380Y-79636952D01*
X132564952Y-80208380D01*
X133183999Y-80208380D01*
X134374476Y-80208380D02*
X134374476Y-79208380D01*
X134707809Y-79922666D01*
X135041142Y-79208380D01*
X135041142Y-80208380D01*
X135660190Y-80208380D02*
X135564952Y-80160761D01*
X135517333Y-80113142D01*
X135469714Y-80017904D01*
X135469714Y-79732190D01*
X135517333Y-79636952D01*
X135564952Y-79589333D01*
X135660190Y-79541714D01*
X135803047Y-79541714D01*
X135898285Y-79589333D01*
X135945904Y-79636952D01*
X135993523Y-79732190D01*
X135993523Y-80017904D01*
X135945904Y-80113142D01*
X135898285Y-80160761D01*
X135803047Y-80208380D01*
X135660190Y-80208380D01*
X136422095Y-79541714D02*
X136422095Y-80208380D01*
X136422095Y-79636952D02*
X136469714Y-79589333D01*
X136564952Y-79541714D01*
X136707809Y-79541714D01*
X136803047Y-79589333D01*
X136850666Y-79684571D01*
X136850666Y-80208380D01*
X137326857Y-80208380D02*
X137326857Y-79541714D01*
X137326857Y-79208380D02*
X137279238Y-79256000D01*
X137326857Y-79303619D01*
X137374476Y-79256000D01*
X137326857Y-79208380D01*
X137326857Y-79303619D01*
X137660190Y-79541714D02*
X138041142Y-79541714D01*
X137803047Y-79208380D02*
X137803047Y-80065523D01*
X137850666Y-80160761D01*
X137945904Y-80208380D01*
X138041142Y-80208380D01*
X138517333Y-80208380D02*
X138422095Y-80160761D01*
X138374476Y-80113142D01*
X138326857Y-80017904D01*
X138326857Y-79732190D01*
X138374476Y-79636952D01*
X138422095Y-79589333D01*
X138517333Y-79541714D01*
X138660190Y-79541714D01*
X138755428Y-79589333D01*
X138803047Y-79636952D01*
X138850666Y-79732190D01*
X138850666Y-80017904D01*
X138803047Y-80113142D01*
X138755428Y-80160761D01*
X138660190Y-80208380D01*
X138517333Y-80208380D01*
X139279238Y-80208380D02*
X139279238Y-79541714D01*
X139279238Y-79732190D02*
X139326857Y-79636952D01*
X139374476Y-79589333D01*
X139469714Y-79541714D01*
X139564952Y-79541714D01*
X141374476Y-79160761D02*
X140517333Y-80446476D01*
X142803047Y-79684571D02*
X142945904Y-79732190D01*
X142993523Y-79779809D01*
X143041142Y-79875047D01*
X143041142Y-80017904D01*
X142993523Y-80113142D01*
X142945904Y-80160761D01*
X142850666Y-80208380D01*
X142469714Y-80208380D01*
X142469714Y-79208380D01*
X142803047Y-79208380D01*
X142898285Y-79256000D01*
X142945904Y-79303619D01*
X142993523Y-79398857D01*
X142993523Y-79494095D01*
X142945904Y-79589333D01*
X142898285Y-79636952D01*
X142803047Y-79684571D01*
X142469714Y-79684571D01*
X143469714Y-80208380D02*
X143469714Y-79541714D01*
X143469714Y-79732190D02*
X143517333Y-79636952D01*
X143564952Y-79589333D01*
X143660190Y-79541714D01*
X143755428Y-79541714D01*
X144469714Y-80160761D02*
X144374476Y-80208380D01*
X144184000Y-80208380D01*
X144088761Y-80160761D01*
X144041142Y-80065523D01*
X144041142Y-79684571D01*
X144088761Y-79589333D01*
X144184000Y-79541714D01*
X144374476Y-79541714D01*
X144469714Y-79589333D01*
X144517333Y-79684571D01*
X144517333Y-79779809D01*
X144041142Y-79875047D01*
X145374476Y-80208380D02*
X145374476Y-79684571D01*
X145326857Y-79589333D01*
X145231619Y-79541714D01*
X145041142Y-79541714D01*
X144945904Y-79589333D01*
X145374476Y-80160761D02*
X145279238Y-80208380D01*
X145041142Y-80208380D01*
X144945904Y-80160761D01*
X144898285Y-80065523D01*
X144898285Y-79970285D01*
X144945904Y-79875047D01*
X145041142Y-79827428D01*
X145279238Y-79827428D01*
X145374476Y-79779809D01*
X145850666Y-80208380D02*
X145850666Y-79208380D01*
X145945904Y-79827428D02*
X146231619Y-80208380D01*
X146231619Y-79541714D02*
X145850666Y-79922666D01*
X146803047Y-80208380D02*
X146707809Y-80160761D01*
X146660190Y-80113142D01*
X146612571Y-80017904D01*
X146612571Y-79732190D01*
X146660190Y-79636952D01*
X146707809Y-79589333D01*
X146803047Y-79541714D01*
X146945904Y-79541714D01*
X147041142Y-79589333D01*
X147088761Y-79636952D01*
X147136380Y-79732190D01*
X147136380Y-80017904D01*
X147088761Y-80113142D01*
X147041142Y-80160761D01*
X146945904Y-80208380D01*
X146803047Y-80208380D01*
X147993523Y-79541714D02*
X147993523Y-80208380D01*
X147564952Y-79541714D02*
X147564952Y-80065523D01*
X147612571Y-80160761D01*
X147707809Y-80208380D01*
X147850666Y-80208380D01*
X147945904Y-80160761D01*
X147993523Y-80113142D01*
X148326857Y-79541714D02*
X148707809Y-79541714D01*
X148469714Y-79208380D02*
X148469714Y-80065523D01*
X148517333Y-80160761D01*
X148612571Y-80208380D01*
X148707809Y-80208380D01*
X91083000Y-76287380D02*
X91654428Y-76287380D01*
X91368714Y-77287380D02*
X91368714Y-76287380D01*
X91987761Y-77287380D02*
X91987761Y-76287380D01*
X92416333Y-77287380D02*
X92416333Y-76763571D01*
X92368714Y-76668333D01*
X92273476Y-76620714D01*
X92130619Y-76620714D01*
X92035380Y-76668333D01*
X91987761Y-76715952D01*
X92892523Y-77287380D02*
X92892523Y-76620714D01*
X92892523Y-76811190D02*
X92940142Y-76715952D01*
X92987761Y-76668333D01*
X93083000Y-76620714D01*
X93178238Y-76620714D01*
X93940142Y-76620714D02*
X93940142Y-77287380D01*
X93511571Y-76620714D02*
X93511571Y-77144523D01*
X93559190Y-77239761D01*
X93654428Y-77287380D01*
X93797285Y-77287380D01*
X93892523Y-77239761D01*
X93940142Y-77192142D01*
X78621095Y-77287380D02*
X78621095Y-76287380D01*
X79192523Y-77287380D01*
X79192523Y-76287380D01*
X80097285Y-76620714D02*
X80097285Y-77287380D01*
X79668714Y-76620714D02*
X79668714Y-77144523D01*
X79716333Y-77239761D01*
X79811571Y-77287380D01*
X79954428Y-77287380D01*
X80049666Y-77239761D01*
X80097285Y-77192142D01*
X80716333Y-77287380D02*
X80621095Y-77239761D01*
X80573476Y-77144523D01*
X80573476Y-76287380D01*
X81240142Y-77287380D02*
X81144904Y-77239761D01*
X81097285Y-77144523D01*
X81097285Y-76287380D01*
X136906095Y-100592000D02*
X136810857Y-100544380D01*
X136668000Y-100544380D01*
X136525142Y-100592000D01*
X136429904Y-100687238D01*
X136382285Y-100782476D01*
X136334666Y-100972952D01*
X136334666Y-101115809D01*
X136382285Y-101306285D01*
X136429904Y-101401523D01*
X136525142Y-101496761D01*
X136668000Y-101544380D01*
X136763238Y-101544380D01*
X136906095Y-101496761D01*
X136953714Y-101449142D01*
X136953714Y-101115809D01*
X136763238Y-101115809D01*
X137382285Y-101544380D02*
X137382285Y-100544380D01*
X137953714Y-101544380D01*
X137953714Y-100544380D01*
X138429904Y-101544380D02*
X138429904Y-100544380D01*
X138668000Y-100544380D01*
X138810857Y-100592000D01*
X138906095Y-100687238D01*
X138953714Y-100782476D01*
X139001333Y-100972952D01*
X139001333Y-101115809D01*
X138953714Y-101306285D01*
X138906095Y-101401523D01*
X138810857Y-101496761D01*
X138668000Y-101544380D01*
X138429904Y-101544380D01*
X134691428Y-101544380D02*
X134358095Y-101068190D01*
X134120000Y-101544380D02*
X134120000Y-100544380D01*
X134500952Y-100544380D01*
X134596190Y-100592000D01*
X134643809Y-100639619D01*
X134691428Y-100734857D01*
X134691428Y-100877714D01*
X134643809Y-100972952D01*
X134596190Y-101020571D01*
X134500952Y-101068190D01*
X134120000Y-101068190D01*
X135120000Y-101544380D02*
X135120000Y-100544380D01*
X83058095Y-96655000D02*
X82962857Y-96607380D01*
X82820000Y-96607380D01*
X82677142Y-96655000D01*
X82581904Y-96750238D01*
X82534285Y-96845476D01*
X82486666Y-97035952D01*
X82486666Y-97178809D01*
X82534285Y-97369285D01*
X82581904Y-97464523D01*
X82677142Y-97559761D01*
X82820000Y-97607380D01*
X82915238Y-97607380D01*
X83058095Y-97559761D01*
X83105714Y-97512142D01*
X83105714Y-97178809D01*
X82915238Y-97178809D01*
X83534285Y-97607380D02*
X83534285Y-96607380D01*
X84105714Y-97607380D01*
X84105714Y-96607380D01*
X84581904Y-97607380D02*
X84581904Y-96607380D01*
X84820000Y-96607380D01*
X84962857Y-96655000D01*
X85058095Y-96750238D01*
X85105714Y-96845476D01*
X85153333Y-97035952D01*
X85153333Y-97178809D01*
X85105714Y-97369285D01*
X85058095Y-97464523D01*
X84962857Y-97559761D01*
X84820000Y-97607380D01*
X84581904Y-97607380D01*
X83272380Y-89892142D02*
X83224761Y-89939761D01*
X83081904Y-89987380D01*
X82986666Y-89987380D01*
X82843809Y-89939761D01*
X82748571Y-89844523D01*
X82700952Y-89749285D01*
X82653333Y-89558809D01*
X82653333Y-89415952D01*
X82700952Y-89225476D01*
X82748571Y-89130238D01*
X82843809Y-89035000D01*
X82986666Y-88987380D01*
X83081904Y-88987380D01*
X83224761Y-89035000D01*
X83272380Y-89082619D01*
X83558095Y-88987380D02*
X84129523Y-88987380D01*
X83843809Y-89987380D02*
X83843809Y-88987380D01*
X84415238Y-89939761D02*
X84558095Y-89987380D01*
X84796190Y-89987380D01*
X84891428Y-89939761D01*
X84939047Y-89892142D01*
X84986666Y-89796904D01*
X84986666Y-89701666D01*
X84939047Y-89606428D01*
X84891428Y-89558809D01*
X84796190Y-89511190D01*
X84605714Y-89463571D01*
X84510476Y-89415952D01*
X84462857Y-89368333D01*
X84415238Y-89273095D01*
X84415238Y-89177857D01*
X84462857Y-89082619D01*
X84510476Y-89035000D01*
X84605714Y-88987380D01*
X84843809Y-88987380D01*
X84986666Y-89035000D01*
X83272380Y-92527380D02*
X82939047Y-92051190D01*
X82700952Y-92527380D02*
X82700952Y-91527380D01*
X83081904Y-91527380D01*
X83177142Y-91575000D01*
X83224761Y-91622619D01*
X83272380Y-91717857D01*
X83272380Y-91860714D01*
X83224761Y-91955952D01*
X83177142Y-92003571D01*
X83081904Y-92051190D01*
X82700952Y-92051190D01*
X83558095Y-91527380D02*
X84129523Y-91527380D01*
X83843809Y-92527380D02*
X83843809Y-91527380D01*
X84415238Y-92479761D02*
X84558095Y-92527380D01*
X84796190Y-92527380D01*
X84891428Y-92479761D01*
X84939047Y-92432142D01*
X84986666Y-92336904D01*
X84986666Y-92241666D01*
X84939047Y-92146428D01*
X84891428Y-92098809D01*
X84796190Y-92051190D01*
X84605714Y-92003571D01*
X84510476Y-91955952D01*
X84462857Y-91908333D01*
X84415238Y-91813095D01*
X84415238Y-91717857D01*
X84462857Y-91622619D01*
X84510476Y-91575000D01*
X84605714Y-91527380D01*
X84843809Y-91527380D01*
X84986666Y-91575000D01*
X82581904Y-95067380D02*
X82581904Y-94067380D01*
X82820000Y-94067380D01*
X82962857Y-94115000D01*
X83058095Y-94210238D01*
X83105714Y-94305476D01*
X83153333Y-94495952D01*
X83153333Y-94638809D01*
X83105714Y-94829285D01*
X83058095Y-94924523D01*
X82962857Y-95019761D01*
X82820000Y-95067380D01*
X82581904Y-95067380D01*
X83534285Y-95019761D02*
X83677142Y-95067380D01*
X83915238Y-95067380D01*
X84010476Y-95019761D01*
X84058095Y-94972142D01*
X84105714Y-94876904D01*
X84105714Y-94781666D01*
X84058095Y-94686428D01*
X84010476Y-94638809D01*
X83915238Y-94591190D01*
X83724761Y-94543571D01*
X83629523Y-94495952D01*
X83581904Y-94448333D01*
X83534285Y-94353095D01*
X83534285Y-94257857D01*
X83581904Y-94162619D01*
X83629523Y-94115000D01*
X83724761Y-94067380D01*
X83962857Y-94067380D01*
X84105714Y-94115000D01*
X85105714Y-95067380D02*
X84772380Y-94591190D01*
X84534285Y-95067380D02*
X84534285Y-94067380D01*
X84915238Y-94067380D01*
X85010476Y-94115000D01*
X85058095Y-94162619D01*
X85105714Y-94257857D01*
X85105714Y-94400714D01*
X85058095Y-94495952D01*
X85010476Y-94543571D01*
X84915238Y-94591190D01*
X84534285Y-94591190D01*
X82677142Y-100147380D02*
X82677142Y-99147380D01*
X82915238Y-99147380D01*
X83058095Y-99195000D01*
X83153333Y-99290238D01*
X83200952Y-99385476D01*
X83248571Y-99575952D01*
X83248571Y-99718809D01*
X83200952Y-99909285D01*
X83153333Y-100004523D01*
X83058095Y-100099761D01*
X82915238Y-100147380D01*
X82677142Y-100147380D01*
X83534285Y-99147380D02*
X84105714Y-99147380D01*
X83820000Y-100147380D02*
X83820000Y-99147380D01*
X85010476Y-100147380D02*
X84677142Y-99671190D01*
X84439047Y-100147380D02*
X84439047Y-99147380D01*
X84820000Y-99147380D01*
X84915238Y-99195000D01*
X84962857Y-99242619D01*
X85010476Y-99337857D01*
X85010476Y-99480714D01*
X84962857Y-99575952D01*
X84915238Y-99623571D01*
X84820000Y-99671190D01*
X84439047Y-99671190D01*
X82423095Y-101687380D02*
X82994523Y-101687380D01*
X82708809Y-102687380D02*
X82708809Y-101687380D01*
X83232619Y-101687380D02*
X83899285Y-102687380D01*
X83899285Y-101687380D02*
X83232619Y-102687380D01*
X83018333Y-105227380D02*
X82685000Y-104751190D01*
X82446904Y-105227380D02*
X82446904Y-104227380D01*
X82827857Y-104227380D01*
X82923095Y-104275000D01*
X82970714Y-104322619D01*
X83018333Y-104417857D01*
X83018333Y-104560714D01*
X82970714Y-104655952D01*
X82923095Y-104703571D01*
X82827857Y-104751190D01*
X82446904Y-104751190D01*
X83351666Y-104227380D02*
X84018333Y-105227380D01*
X84018333Y-104227380D02*
X83351666Y-105227380D01*
X82558095Y-107767380D02*
X82558095Y-106767380D01*
X82796190Y-106767380D01*
X82939047Y-106815000D01*
X83034285Y-106910238D01*
X83081904Y-107005476D01*
X83129523Y-107195952D01*
X83129523Y-107338809D01*
X83081904Y-107529285D01*
X83034285Y-107624523D01*
X82939047Y-107719761D01*
X82796190Y-107767380D01*
X82558095Y-107767380D01*
X84129523Y-107672142D02*
X84081904Y-107719761D01*
X83939047Y-107767380D01*
X83843809Y-107767380D01*
X83700952Y-107719761D01*
X83605714Y-107624523D01*
X83558095Y-107529285D01*
X83510476Y-107338809D01*
X83510476Y-107195952D01*
X83558095Y-107005476D01*
X83605714Y-106910238D01*
X83700952Y-106815000D01*
X83843809Y-106767380D01*
X83939047Y-106767380D01*
X84081904Y-106815000D01*
X84129523Y-106862619D01*
X84558095Y-107767380D02*
X84558095Y-106767380D01*
X84796190Y-106767380D01*
X84939047Y-106815000D01*
X85034285Y-106910238D01*
X85081904Y-107005476D01*
X85129523Y-107195952D01*
X85129523Y-107338809D01*
X85081904Y-107529285D01*
X85034285Y-107624523D01*
X84939047Y-107719761D01*
X84796190Y-107767380D01*
X84558095Y-107767380D01*
X129611428Y-95702380D02*
X129278095Y-95226190D01*
X129040000Y-95702380D02*
X129040000Y-94702380D01*
X129420952Y-94702380D01*
X129516190Y-94750000D01*
X129563809Y-94797619D01*
X129611428Y-94892857D01*
X129611428Y-95035714D01*
X129563809Y-95130952D01*
X129516190Y-95178571D01*
X129420952Y-95226190D01*
X129040000Y-95226190D01*
X130040000Y-95702380D02*
X130040000Y-94702380D01*
X123912380Y-95607142D02*
X123864761Y-95654761D01*
X123721904Y-95702380D01*
X123626666Y-95702380D01*
X123483809Y-95654761D01*
X123388571Y-95559523D01*
X123340952Y-95464285D01*
X123293333Y-95273809D01*
X123293333Y-95130952D01*
X123340952Y-94940476D01*
X123388571Y-94845238D01*
X123483809Y-94750000D01*
X123626666Y-94702380D01*
X123721904Y-94702380D01*
X123864761Y-94750000D01*
X123912380Y-94797619D01*
X124198095Y-94702380D02*
X124769523Y-94702380D01*
X124483809Y-95702380D02*
X124483809Y-94702380D01*
X125055238Y-95654761D02*
X125198095Y-95702380D01*
X125436190Y-95702380D01*
X125531428Y-95654761D01*
X125579047Y-95607142D01*
X125626666Y-95511904D01*
X125626666Y-95416666D01*
X125579047Y-95321428D01*
X125531428Y-95273809D01*
X125436190Y-95226190D01*
X125245714Y-95178571D01*
X125150476Y-95130952D01*
X125102857Y-95083333D01*
X125055238Y-94988095D01*
X125055238Y-94892857D01*
X125102857Y-94797619D01*
X125150476Y-94750000D01*
X125245714Y-94702380D01*
X125483809Y-94702380D01*
X125626666Y-94750000D01*
X118832380Y-95702380D02*
X118499047Y-95226190D01*
X118260952Y-95702380D02*
X118260952Y-94702380D01*
X118641904Y-94702380D01*
X118737142Y-94750000D01*
X118784761Y-94797619D01*
X118832380Y-94892857D01*
X118832380Y-95035714D01*
X118784761Y-95130952D01*
X118737142Y-95178571D01*
X118641904Y-95226190D01*
X118260952Y-95226190D01*
X119118095Y-94702380D02*
X119689523Y-94702380D01*
X119403809Y-95702380D02*
X119403809Y-94702380D01*
X119975238Y-95654761D02*
X120118095Y-95702380D01*
X120356190Y-95702380D01*
X120451428Y-95654761D01*
X120499047Y-95607142D01*
X120546666Y-95511904D01*
X120546666Y-95416666D01*
X120499047Y-95321428D01*
X120451428Y-95273809D01*
X120356190Y-95226190D01*
X120165714Y-95178571D01*
X120070476Y-95130952D01*
X120022857Y-95083333D01*
X119975238Y-94988095D01*
X119975238Y-94892857D01*
X120022857Y-94797619D01*
X120070476Y-94750000D01*
X120165714Y-94702380D01*
X120403809Y-94702380D01*
X120546666Y-94750000D01*
X113061904Y-95702380D02*
X113061904Y-94702380D01*
X113300000Y-94702380D01*
X113442857Y-94750000D01*
X113538095Y-94845238D01*
X113585714Y-94940476D01*
X113633333Y-95130952D01*
X113633333Y-95273809D01*
X113585714Y-95464285D01*
X113538095Y-95559523D01*
X113442857Y-95654761D01*
X113300000Y-95702380D01*
X113061904Y-95702380D01*
X114014285Y-95654761D02*
X114157142Y-95702380D01*
X114395238Y-95702380D01*
X114490476Y-95654761D01*
X114538095Y-95607142D01*
X114585714Y-95511904D01*
X114585714Y-95416666D01*
X114538095Y-95321428D01*
X114490476Y-95273809D01*
X114395238Y-95226190D01*
X114204761Y-95178571D01*
X114109523Y-95130952D01*
X114061904Y-95083333D01*
X114014285Y-94988095D01*
X114014285Y-94892857D01*
X114061904Y-94797619D01*
X114109523Y-94750000D01*
X114204761Y-94702380D01*
X114442857Y-94702380D01*
X114585714Y-94750000D01*
X115585714Y-95702380D02*
X115252380Y-95226190D01*
X115014285Y-95702380D02*
X115014285Y-94702380D01*
X115395238Y-94702380D01*
X115490476Y-94750000D01*
X115538095Y-94797619D01*
X115585714Y-94892857D01*
X115585714Y-95035714D01*
X115538095Y-95130952D01*
X115490476Y-95178571D01*
X115395238Y-95226190D01*
X115014285Y-95226190D01*
X108077142Y-95702380D02*
X108077142Y-94702380D01*
X108315238Y-94702380D01*
X108458095Y-94750000D01*
X108553333Y-94845238D01*
X108600952Y-94940476D01*
X108648571Y-95130952D01*
X108648571Y-95273809D01*
X108600952Y-95464285D01*
X108553333Y-95559523D01*
X108458095Y-95654761D01*
X108315238Y-95702380D01*
X108077142Y-95702380D01*
X108934285Y-94702380D02*
X109505714Y-94702380D01*
X109220000Y-95702380D02*
X109220000Y-94702380D01*
X110410476Y-95702380D02*
X110077142Y-95226190D01*
X109839047Y-95702380D02*
X109839047Y-94702380D01*
X110220000Y-94702380D01*
X110315238Y-94750000D01*
X110362857Y-94797619D01*
X110410476Y-94892857D01*
X110410476Y-95035714D01*
X110362857Y-95130952D01*
X110315238Y-95178571D01*
X110220000Y-95226190D01*
X109839047Y-95226190D01*
X103378095Y-94702380D02*
X103949523Y-94702380D01*
X103663809Y-95702380D02*
X103663809Y-94702380D01*
X104187619Y-94702380D02*
X104854285Y-95702380D01*
X104854285Y-94702380D02*
X104187619Y-95702380D01*
X98893333Y-95702380D02*
X98560000Y-95226190D01*
X98321904Y-95702380D02*
X98321904Y-94702380D01*
X98702857Y-94702380D01*
X98798095Y-94750000D01*
X98845714Y-94797619D01*
X98893333Y-94892857D01*
X98893333Y-95035714D01*
X98845714Y-95130952D01*
X98798095Y-95178571D01*
X98702857Y-95226190D01*
X98321904Y-95226190D01*
X99226666Y-94702380D02*
X99893333Y-95702380D01*
X99893333Y-94702380D02*
X99226666Y-95702380D01*
X92718095Y-95702380D02*
X92718095Y-94702380D01*
X92956190Y-94702380D01*
X93099047Y-94750000D01*
X93194285Y-94845238D01*
X93241904Y-94940476D01*
X93289523Y-95130952D01*
X93289523Y-95273809D01*
X93241904Y-95464285D01*
X93194285Y-95559523D01*
X93099047Y-95654761D01*
X92956190Y-95702380D01*
X92718095Y-95702380D01*
X94289523Y-95607142D02*
X94241904Y-95654761D01*
X94099047Y-95702380D01*
X94003809Y-95702380D01*
X93860952Y-95654761D01*
X93765714Y-95559523D01*
X93718095Y-95464285D01*
X93670476Y-95273809D01*
X93670476Y-95130952D01*
X93718095Y-94940476D01*
X93765714Y-94845238D01*
X93860952Y-94750000D01*
X94003809Y-94702380D01*
X94099047Y-94702380D01*
X94241904Y-94750000D01*
X94289523Y-94797619D01*
X94718095Y-95702380D02*
X94718095Y-94702380D01*
X94956190Y-94702380D01*
X95099047Y-94750000D01*
X95194285Y-94845238D01*
X95241904Y-94940476D01*
X95289523Y-95130952D01*
X95289523Y-95273809D01*
X95241904Y-95464285D01*
X95194285Y-95559523D01*
X95099047Y-95654761D01*
X94956190Y-95702380D01*
X94718095Y-95702380D01*
D11*
G04 #@! TO.C,D1*
X95652335Y-97346392D02*
G75*
G03X92420000Y-97189484I-1672335J-1078608D01*
G01*
X95652335Y-99503608D02*
G75*
G02X92420000Y-99660516I-1672335J1078608D01*
G01*
X95021130Y-97345163D02*
G75*
G03X92939039Y-97345000I-1041130J-1079837D01*
G01*
X95021130Y-99504837D02*
G75*
G02X92939039Y-99505000I-1041130J1079837D01*
G01*
X92420000Y-97189000D02*
X92420000Y-97345000D01*
X92420000Y-99505000D02*
X92420000Y-99661000D01*
G04 #@! TO.C,D2*
X92420000Y-103950000D02*
X92420000Y-104106000D01*
X92420000Y-101634000D02*
X92420000Y-101790000D01*
X95021130Y-103949837D02*
G75*
G02X92939039Y-103950000I-1041130J1079837D01*
G01*
X95021130Y-101790163D02*
G75*
G03X92939039Y-101790000I-1041130J-1079837D01*
G01*
X95652335Y-103948608D02*
G75*
G02X92420000Y-104105516I-1672335J1078608D01*
G01*
X95652335Y-101791392D02*
G75*
G03X92420000Y-101634484I-1672335J-1078608D01*
G01*
G04 #@! TO.C,D3*
X115972335Y-97346392D02*
G75*
G03X112740000Y-97189484I-1672335J-1078608D01*
G01*
X115972335Y-99503608D02*
G75*
G02X112740000Y-99660516I-1672335J1078608D01*
G01*
X115341130Y-97345163D02*
G75*
G03X113259039Y-97345000I-1041130J-1079837D01*
G01*
X115341130Y-99504837D02*
G75*
G02X113259039Y-99505000I-1041130J1079837D01*
G01*
X112740000Y-97189000D02*
X112740000Y-97345000D01*
X112740000Y-99505000D02*
X112740000Y-99661000D01*
G04 #@! TO.C,D4*
X112740000Y-103950000D02*
X112740000Y-104106000D01*
X112740000Y-101634000D02*
X112740000Y-101790000D01*
X115341130Y-103949837D02*
G75*
G02X113259039Y-103950000I-1041130J1079837D01*
G01*
X115341130Y-101790163D02*
G75*
G03X113259039Y-101790000I-1041130J-1079837D01*
G01*
X115972335Y-103948608D02*
G75*
G02X112740000Y-104105516I-1672335J1078608D01*
G01*
X115972335Y-101791392D02*
G75*
G03X112740000Y-101634484I-1672335J-1078608D01*
G01*
G04 #@! TO.C,D5*
X110892335Y-97346392D02*
G75*
G03X107660000Y-97189484I-1672335J-1078608D01*
G01*
X110892335Y-99503608D02*
G75*
G02X107660000Y-99660516I-1672335J1078608D01*
G01*
X110261130Y-97345163D02*
G75*
G03X108179039Y-97345000I-1041130J-1079837D01*
G01*
X110261130Y-99504837D02*
G75*
G02X108179039Y-99505000I-1041130J1079837D01*
G01*
X107660000Y-97189000D02*
X107660000Y-97345000D01*
X107660000Y-99505000D02*
X107660000Y-99661000D01*
G04 #@! TO.C,D6*
X107660000Y-103950000D02*
X107660000Y-104106000D01*
X107660000Y-101634000D02*
X107660000Y-101790000D01*
X110261130Y-103949837D02*
G75*
G02X108179039Y-103950000I-1041130J1079837D01*
G01*
X110261130Y-101790163D02*
G75*
G03X108179039Y-101790000I-1041130J-1079837D01*
G01*
X110892335Y-103948608D02*
G75*
G02X107660000Y-104105516I-1672335J1078608D01*
G01*
X110892335Y-101791392D02*
G75*
G03X107660000Y-101634484I-1672335J-1078608D01*
G01*
G04 #@! TO.C,D7*
X121052335Y-97346392D02*
G75*
G03X117820000Y-97189484I-1672335J-1078608D01*
G01*
X121052335Y-99503608D02*
G75*
G02X117820000Y-99660516I-1672335J1078608D01*
G01*
X120421130Y-97345163D02*
G75*
G03X118339039Y-97345000I-1041130J-1079837D01*
G01*
X120421130Y-99504837D02*
G75*
G02X118339039Y-99505000I-1041130J1079837D01*
G01*
X117820000Y-97189000D02*
X117820000Y-97345000D01*
X117820000Y-99505000D02*
X117820000Y-99661000D01*
G04 #@! TO.C,D8*
X117820000Y-103950000D02*
X117820000Y-104106000D01*
X117820000Y-101634000D02*
X117820000Y-101790000D01*
X120421130Y-103949837D02*
G75*
G02X118339039Y-103950000I-1041130J1079837D01*
G01*
X120421130Y-101790163D02*
G75*
G03X118339039Y-101790000I-1041130J-1079837D01*
G01*
X121052335Y-103948608D02*
G75*
G02X117820000Y-104105516I-1672335J1078608D01*
G01*
X121052335Y-101791392D02*
G75*
G03X117820000Y-101634484I-1672335J-1078608D01*
G01*
G04 #@! TO.C,D9*
X126132335Y-97346392D02*
G75*
G03X122900000Y-97189484I-1672335J-1078608D01*
G01*
X126132335Y-99503608D02*
G75*
G02X122900000Y-99660516I-1672335J1078608D01*
G01*
X125501130Y-97345163D02*
G75*
G03X123419039Y-97345000I-1041130J-1079837D01*
G01*
X125501130Y-99504837D02*
G75*
G02X123419039Y-99505000I-1041130J1079837D01*
G01*
X122900000Y-97189000D02*
X122900000Y-97345000D01*
X122900000Y-99505000D02*
X122900000Y-99661000D01*
G04 #@! TO.C,D10*
X122900000Y-103950000D02*
X122900000Y-104106000D01*
X122900000Y-101634000D02*
X122900000Y-101790000D01*
X125501130Y-103949837D02*
G75*
G02X123419039Y-103950000I-1041130J1079837D01*
G01*
X125501130Y-101790163D02*
G75*
G03X123419039Y-101790000I-1041130J-1079837D01*
G01*
X126132335Y-103948608D02*
G75*
G02X122900000Y-104105516I-1672335J1078608D01*
G01*
X126132335Y-101791392D02*
G75*
G03X122900000Y-101634484I-1672335J-1078608D01*
G01*
G04 #@! TO.C,D11*
X131212335Y-97346392D02*
G75*
G03X127980000Y-97189484I-1672335J-1078608D01*
G01*
X131212335Y-99503608D02*
G75*
G02X127980000Y-99660516I-1672335J1078608D01*
G01*
X130581130Y-97345163D02*
G75*
G03X128499039Y-97345000I-1041130J-1079837D01*
G01*
X130581130Y-99504837D02*
G75*
G02X128499039Y-99505000I-1041130J1079837D01*
G01*
X127980000Y-97189000D02*
X127980000Y-97345000D01*
X127980000Y-99505000D02*
X127980000Y-99661000D01*
G04 #@! TO.C,D12*
X127980000Y-103950000D02*
X127980000Y-104106000D01*
X127980000Y-101634000D02*
X127980000Y-101790000D01*
X130581130Y-103949837D02*
G75*
G02X128499039Y-103950000I-1041130J1079837D01*
G01*
X130581130Y-101790163D02*
G75*
G03X128499039Y-101790000I-1041130J-1079837D01*
G01*
X131212335Y-103948608D02*
G75*
G02X127980000Y-104105516I-1672335J1078608D01*
G01*
X131212335Y-101791392D02*
G75*
G03X127980000Y-101634484I-1672335J-1078608D01*
G01*
G04 #@! TO.C,D13*
X100732335Y-97346392D02*
G75*
G03X97500000Y-97189484I-1672335J-1078608D01*
G01*
X100732335Y-99503608D02*
G75*
G02X97500000Y-99660516I-1672335J1078608D01*
G01*
X100101130Y-97345163D02*
G75*
G03X98019039Y-97345000I-1041130J-1079837D01*
G01*
X100101130Y-99504837D02*
G75*
G02X98019039Y-99505000I-1041130J1079837D01*
G01*
X97500000Y-97189000D02*
X97500000Y-97345000D01*
X97500000Y-99505000D02*
X97500000Y-99661000D01*
G04 #@! TO.C,D14*
X97500000Y-103950000D02*
X97500000Y-104106000D01*
X97500000Y-101634000D02*
X97500000Y-101790000D01*
X100101130Y-103949837D02*
G75*
G02X98019039Y-103950000I-1041130J1079837D01*
G01*
X100101130Y-101790163D02*
G75*
G03X98019039Y-101790000I-1041130J-1079837D01*
G01*
X100732335Y-103948608D02*
G75*
G02X97500000Y-104105516I-1672335J1078608D01*
G01*
X100732335Y-101791392D02*
G75*
G03X97500000Y-101634484I-1672335J-1078608D01*
G01*
G04 #@! TO.C,D15*
X105812335Y-97346392D02*
G75*
G03X102580000Y-97189484I-1672335J-1078608D01*
G01*
X105812335Y-99503608D02*
G75*
G02X102580000Y-99660516I-1672335J1078608D01*
G01*
X105181130Y-97345163D02*
G75*
G03X103099039Y-97345000I-1041130J-1079837D01*
G01*
X105181130Y-99504837D02*
G75*
G02X103099039Y-99505000I-1041130J1079837D01*
G01*
X102580000Y-97189000D02*
X102580000Y-97345000D01*
X102580000Y-99505000D02*
X102580000Y-99661000D01*
G04 #@! TO.C,D16*
X102580000Y-103950000D02*
X102580000Y-104106000D01*
X102580000Y-101634000D02*
X102580000Y-101790000D01*
X105181130Y-103949837D02*
G75*
G02X103099039Y-103950000I-1041130J1079837D01*
G01*
X105181130Y-101790163D02*
G75*
G03X103099039Y-101790000I-1041130J-1079837D01*
G01*
X105812335Y-103948608D02*
G75*
G02X102580000Y-104105516I-1672335J1078608D01*
G01*
X105812335Y-101791392D02*
G75*
G03X102580000Y-101634484I-1672335J-1078608D01*
G01*
G04 #@! TO.C,J6*
X81340000Y-106045000D02*
X78680000Y-106045000D01*
X81340000Y-106045000D02*
X81340000Y-88205000D01*
X81340000Y-88205000D02*
X78680000Y-88205000D01*
X78680000Y-106045000D02*
X78680000Y-88205000D01*
X78680000Y-108645000D02*
X78680000Y-107315000D01*
X80010000Y-108645000D02*
X78680000Y-108645000D01*
G04 #@! TO.C,J7*
X136398000Y-99882000D02*
X136398000Y-97222000D01*
X136398000Y-99882000D02*
X138998000Y-99882000D01*
X138998000Y-99882000D02*
X138998000Y-97222000D01*
X136398000Y-97222000D02*
X138998000Y-97222000D01*
X133798000Y-97222000D02*
X135128000Y-97222000D01*
X133798000Y-98552000D02*
X133798000Y-97222000D01*
G04 #@! TO.C,R1*
X94464000Y-109728000D02*
X93694000Y-109728000D01*
X86384000Y-109728000D02*
X87154000Y-109728000D01*
X93694000Y-108358000D02*
X87154000Y-108358000D01*
X93694000Y-111098000D02*
X93694000Y-108358000D01*
X87154000Y-111098000D02*
X93694000Y-111098000D01*
X87154000Y-108358000D02*
X87154000Y-111098000D01*
G04 #@! TO.C,R2*
X142462000Y-85698000D02*
X142462000Y-82958000D01*
X142462000Y-82958000D02*
X135922000Y-82958000D01*
X135922000Y-82958000D02*
X135922000Y-85698000D01*
X135922000Y-85698000D02*
X142462000Y-85698000D01*
X143232000Y-84328000D02*
X142462000Y-84328000D01*
X135152000Y-84328000D02*
X135922000Y-84328000D01*
G04 #@! TO.C,R3*
X123976000Y-113284000D02*
X124746000Y-113284000D01*
X132056000Y-113284000D02*
X131286000Y-113284000D01*
X124746000Y-114654000D02*
X131286000Y-114654000D01*
X124746000Y-111914000D02*
X124746000Y-114654000D01*
X131286000Y-111914000D02*
X124746000Y-111914000D01*
X131286000Y-114654000D02*
X131286000Y-111914000D01*
G04 #@! TO.C,R4*
X142462000Y-89254000D02*
X142462000Y-86514000D01*
X142462000Y-86514000D02*
X135922000Y-86514000D01*
X135922000Y-86514000D02*
X135922000Y-89254000D01*
X135922000Y-89254000D02*
X142462000Y-89254000D01*
X143232000Y-87884000D02*
X142462000Y-87884000D01*
X135152000Y-87884000D02*
X135922000Y-87884000D01*
G04 #@! TO.C,R5*
X142462000Y-92810000D02*
X142462000Y-90070000D01*
X142462000Y-90070000D02*
X135922000Y-90070000D01*
X135922000Y-90070000D02*
X135922000Y-92810000D01*
X135922000Y-92810000D02*
X142462000Y-92810000D01*
X143232000Y-91440000D02*
X142462000Y-91440000D01*
X135152000Y-91440000D02*
X135922000Y-91440000D01*
G04 #@! TO.C,R6*
X135152000Y-94996000D02*
X135922000Y-94996000D01*
X143232000Y-94996000D02*
X142462000Y-94996000D01*
X135922000Y-96366000D02*
X142462000Y-96366000D01*
X135922000Y-93626000D02*
X135922000Y-96366000D01*
X142462000Y-93626000D02*
X135922000Y-93626000D01*
X142462000Y-96366000D02*
X142462000Y-93626000D01*
G04 #@! TO.C,R7*
X94464000Y-113284000D02*
X93694000Y-113284000D01*
X86384000Y-113284000D02*
X87154000Y-113284000D01*
X93694000Y-111914000D02*
X87154000Y-111914000D01*
X93694000Y-114654000D02*
X93694000Y-111914000D01*
X87154000Y-114654000D02*
X93694000Y-114654000D01*
X87154000Y-111914000D02*
X87154000Y-114654000D01*
G04 #@! TO.C,R8*
X113506000Y-114654000D02*
X113506000Y-111914000D01*
X113506000Y-111914000D02*
X106966000Y-111914000D01*
X106966000Y-111914000D02*
X106966000Y-114654000D01*
X106966000Y-114654000D02*
X113506000Y-114654000D01*
X114276000Y-113284000D02*
X113506000Y-113284000D01*
X106196000Y-113284000D02*
X106966000Y-113284000D01*
G04 #@! TO.C,SW1*
X82363000Y-75505000D02*
X82363000Y-78165000D01*
X87503000Y-75505000D02*
X82363000Y-75505000D01*
X87503000Y-78165000D02*
X82363000Y-78165000D01*
X87503000Y-75505000D02*
X87503000Y-78165000D01*
X88773000Y-75505000D02*
X90103000Y-75505000D01*
X90103000Y-75505000D02*
X90103000Y-76835000D01*
D10*
G04 #@! TO.C,J1*
X72898000Y-84709000D02*
X72898000Y-115570000D01*
X72898000Y-84709000D02*
X65024000Y-84709000D01*
X72898000Y-115570000D02*
X65024000Y-115570000D01*
D11*
X73325325Y-105664000D02*
X73758338Y-105414000D01*
X73758338Y-105914000D02*
X73325325Y-105664000D01*
X73758338Y-105414000D02*
X73758338Y-105914000D01*
G04 #@! TO.C,J2*
X100334000Y-116741662D02*
X100834000Y-116741662D01*
X100834000Y-116741662D02*
X100584000Y-117174675D01*
X100584000Y-117174675D02*
X100334000Y-116741662D01*
D10*
X110490000Y-117602000D02*
X110490000Y-125476000D01*
X79629000Y-117602000D02*
X79629000Y-125476000D01*
X79629000Y-117602000D02*
X110490000Y-117602000D01*
G04 #@! TO.C,J3*
X115189000Y-117602000D02*
X146050000Y-117602000D01*
X115189000Y-117602000D02*
X115189000Y-125476000D01*
X146050000Y-117602000D02*
X146050000Y-125476000D01*
D11*
X136144000Y-117174675D02*
X135894000Y-116741662D01*
X136394000Y-116741662D02*
X136144000Y-117174675D01*
X135894000Y-116741662D02*
X136394000Y-116741662D01*
G04 #@! TO.C,J4*
X151285662Y-105914000D02*
X151285662Y-105414000D01*
X151285662Y-105414000D02*
X151718675Y-105664000D01*
X151718675Y-105664000D02*
X151285662Y-105914000D01*
D10*
X152146000Y-115570000D02*
X160020000Y-115570000D01*
X152146000Y-84709000D02*
X160020000Y-84709000D01*
X152146000Y-115570000D02*
X152146000Y-84709000D01*
D11*
G04 #@! TO.C,J5*
X106930000Y-83918338D02*
X106430000Y-83918338D01*
X106430000Y-83918338D02*
X106680000Y-83485325D01*
X106680000Y-83485325D02*
X106930000Y-83918338D01*
D10*
X96774000Y-83058000D02*
X96774000Y-75184000D01*
X127635000Y-83058000D02*
X127635000Y-75184000D01*
X127635000Y-83058000D02*
X96774000Y-83058000D01*
D12*
G04 #@! TO.C,LOGO1*
G36*
X92326883Y-93338650D02*
X91313000Y-87382350D01*
X91797717Y-87619417D01*
X89748783Y-81208033D01*
X90576400Y-87022517D01*
X90072633Y-86776983D01*
X92326883Y-93338650D01*
X92326883Y-93338650D01*
G37*
X92326883Y-93338650D02*
X91313000Y-87382350D01*
X91797717Y-87619417D01*
X89748783Y-81208033D01*
X90576400Y-87022517D01*
X90072633Y-86776983D01*
X92326883Y-93338650D01*
G36*
X92036900Y-88072383D02*
X92504683Y-88614250D01*
X92159667Y-89240783D01*
X92820067Y-88963500D01*
X93309017Y-89486317D01*
X93249750Y-88773000D01*
X93897450Y-88468200D01*
X93198950Y-88305217D01*
X93110050Y-87594017D01*
X92739633Y-88207850D01*
X92036900Y-88072383D01*
X92036900Y-88072383D01*
G37*
X92036900Y-88072383D02*
X92504683Y-88614250D01*
X92159667Y-89240783D01*
X92820067Y-88963500D01*
X93309017Y-89486317D01*
X93249750Y-88773000D01*
X93897450Y-88468200D01*
X93198950Y-88305217D01*
X93110050Y-87594017D01*
X92739633Y-88207850D01*
X92036900Y-88072383D01*
G36*
X94777983Y-84946067D02*
X95038333Y-85659383D01*
X94325017Y-85921850D01*
X95046800Y-86163150D01*
X94807617Y-86884933D01*
X95444733Y-86472183D01*
X95859600Y-87109300D01*
X95933683Y-86351533D01*
X96691450Y-86425617D01*
X96145350Y-85896450D01*
X96674517Y-85350350D01*
X95920983Y-85445600D01*
X95823617Y-84692067D01*
X95427800Y-85339767D01*
X94777983Y-84946067D01*
X94777983Y-84946067D01*
G37*
X94777983Y-84946067D02*
X95038333Y-85659383D01*
X94325017Y-85921850D01*
X95046800Y-86163150D01*
X94807617Y-86884933D01*
X95444733Y-86472183D01*
X95859600Y-87109300D01*
X95933683Y-86351533D01*
X96691450Y-86425617D01*
X96145350Y-85896450D01*
X96674517Y-85350350D01*
X95920983Y-85445600D01*
X95823617Y-84692067D01*
X95427800Y-85339767D01*
X94777983Y-84946067D01*
G36*
X87378117Y-84816950D02*
X87640583Y-85530267D01*
X86927267Y-85792733D01*
X87646933Y-86034033D01*
X87407750Y-86755817D01*
X88046983Y-86343067D01*
X88459733Y-86980183D01*
X88535933Y-86222417D01*
X89291583Y-86296500D01*
X88747600Y-85767333D01*
X89276767Y-85221233D01*
X88521117Y-85316483D01*
X88423750Y-84562950D01*
X88030050Y-85210650D01*
X87378117Y-84816950D01*
X87378117Y-84816950D01*
G37*
X87378117Y-84816950D02*
X87640583Y-85530267D01*
X86927267Y-85792733D01*
X87646933Y-86034033D01*
X87407750Y-86755817D01*
X88046983Y-86343067D01*
X88459733Y-86980183D01*
X88535933Y-86222417D01*
X89291583Y-86296500D01*
X88747600Y-85767333D01*
X89276767Y-85221233D01*
X88521117Y-85316483D01*
X88423750Y-84562950D01*
X88030050Y-85210650D01*
X87378117Y-84816950D01*
G36*
X89249250Y-92350167D02*
X89511717Y-93065600D01*
X88798400Y-93328067D01*
X89518067Y-93567250D01*
X89278883Y-94289033D01*
X89918117Y-93876283D01*
X90330867Y-94513400D01*
X90407067Y-93755633D01*
X91162717Y-93829717D01*
X90616617Y-93300550D01*
X91145783Y-92754450D01*
X90392250Y-92849700D01*
X90294883Y-92096167D01*
X89901183Y-92745983D01*
X89249250Y-92350167D01*
X89249250Y-92350167D01*
G37*
X89249250Y-92350167D02*
X89511717Y-93065600D01*
X88798400Y-93328067D01*
X89518067Y-93567250D01*
X89278883Y-94289033D01*
X89918117Y-93876283D01*
X90330867Y-94513400D01*
X90407067Y-93755633D01*
X91162717Y-93829717D01*
X90616617Y-93300550D01*
X91145783Y-92754450D01*
X90392250Y-92849700D01*
X90294883Y-92096167D01*
X89901183Y-92745983D01*
X89249250Y-92350167D01*
G36*
X91732100Y-80672517D02*
X91994567Y-81385833D01*
X91281250Y-81648300D01*
X92000917Y-81889600D01*
X91761733Y-82611383D01*
X92398850Y-82196517D01*
X92813717Y-82833633D01*
X92887800Y-82077983D01*
X93645567Y-82149950D01*
X93099467Y-81620783D01*
X93628633Y-81074683D01*
X92875100Y-81169933D01*
X92777733Y-80416400D01*
X92381917Y-81066217D01*
X91732100Y-80672517D01*
X91732100Y-80672517D01*
G37*
X91732100Y-80672517D02*
X91994567Y-81385833D01*
X91281250Y-81648300D01*
X92000917Y-81889600D01*
X91761733Y-82611383D01*
X92398850Y-82196517D01*
X92813717Y-82833633D01*
X92887800Y-82077983D01*
X93645567Y-82149950D01*
X93099467Y-81620783D01*
X93628633Y-81074683D01*
X92875100Y-81169933D01*
X92777733Y-80416400D01*
X92381917Y-81066217D01*
X91732100Y-80672517D01*
G04 #@! TO.C,J6*
D10*
X77136666Y-87717380D02*
X77136666Y-88431666D01*
X77089047Y-88574523D01*
X76993809Y-88669761D01*
X76850952Y-88717380D01*
X76755714Y-88717380D01*
X78041428Y-87717380D02*
X77850952Y-87717380D01*
X77755714Y-87765000D01*
X77708095Y-87812619D01*
X77612857Y-87955476D01*
X77565238Y-88145952D01*
X77565238Y-88526904D01*
X77612857Y-88622142D01*
X77660476Y-88669761D01*
X77755714Y-88717380D01*
X77946190Y-88717380D01*
X78041428Y-88669761D01*
X78089047Y-88622142D01*
X78136666Y-88526904D01*
X78136666Y-88288809D01*
X78089047Y-88193571D01*
X78041428Y-88145952D01*
X77946190Y-88098333D01*
X77755714Y-88098333D01*
X77660476Y-88145952D01*
X77612857Y-88193571D01*
X77565238Y-88288809D01*
X86447380Y-102544047D02*
X86447380Y-101972619D01*
X87447380Y-102258333D02*
X86447380Y-102258333D01*
X87399761Y-101258333D02*
X87447380Y-101353571D01*
X87447380Y-101544047D01*
X87399761Y-101639285D01*
X87304523Y-101686904D01*
X86923571Y-101686904D01*
X86828333Y-101639285D01*
X86780714Y-101544047D01*
X86780714Y-101353571D01*
X86828333Y-101258333D01*
X86923571Y-101210714D01*
X87018809Y-101210714D01*
X87114047Y-101686904D01*
X87399761Y-100829761D02*
X87447380Y-100734523D01*
X87447380Y-100544047D01*
X87399761Y-100448809D01*
X87304523Y-100401190D01*
X87256904Y-100401190D01*
X87161666Y-100448809D01*
X87114047Y-100544047D01*
X87114047Y-100686904D01*
X87066428Y-100782142D01*
X86971190Y-100829761D01*
X86923571Y-100829761D01*
X86828333Y-100782142D01*
X86780714Y-100686904D01*
X86780714Y-100544047D01*
X86828333Y-100448809D01*
X86780714Y-100115476D02*
X86780714Y-99734523D01*
X86447380Y-99972619D02*
X87304523Y-99972619D01*
X87399761Y-99925000D01*
X87447380Y-99829761D01*
X87447380Y-99734523D01*
X87447380Y-98639285D02*
X86447380Y-98639285D01*
X86447380Y-98258333D01*
X86495000Y-98163095D01*
X86542619Y-98115476D01*
X86637857Y-98067857D01*
X86780714Y-98067857D01*
X86875952Y-98115476D01*
X86923571Y-98163095D01*
X86971190Y-98258333D01*
X86971190Y-98639285D01*
X87447380Y-97496428D02*
X87399761Y-97591666D01*
X87352142Y-97639285D01*
X87256904Y-97686904D01*
X86971190Y-97686904D01*
X86875952Y-97639285D01*
X86828333Y-97591666D01*
X86780714Y-97496428D01*
X86780714Y-97353571D01*
X86828333Y-97258333D01*
X86875952Y-97210714D01*
X86971190Y-97163095D01*
X87256904Y-97163095D01*
X87352142Y-97210714D01*
X87399761Y-97258333D01*
X87447380Y-97353571D01*
X87447380Y-97496428D01*
X87447380Y-96734523D02*
X86780714Y-96734523D01*
X86447380Y-96734523D02*
X86495000Y-96782142D01*
X86542619Y-96734523D01*
X86495000Y-96686904D01*
X86447380Y-96734523D01*
X86542619Y-96734523D01*
X86780714Y-96258333D02*
X87447380Y-96258333D01*
X86875952Y-96258333D02*
X86828333Y-96210714D01*
X86780714Y-96115476D01*
X86780714Y-95972619D01*
X86828333Y-95877380D01*
X86923571Y-95829761D01*
X87447380Y-95829761D01*
X86780714Y-95496428D02*
X86780714Y-95115476D01*
X86447380Y-95353571D02*
X87304523Y-95353571D01*
X87399761Y-95305952D01*
X87447380Y-95210714D01*
X87447380Y-95115476D01*
X87399761Y-94829761D02*
X87447380Y-94734523D01*
X87447380Y-94544047D01*
X87399761Y-94448809D01*
X87304523Y-94401190D01*
X87256904Y-94401190D01*
X87161666Y-94448809D01*
X87114047Y-94544047D01*
X87114047Y-94686904D01*
X87066428Y-94782142D01*
X86971190Y-94829761D01*
X86923571Y-94829761D01*
X86828333Y-94782142D01*
X86780714Y-94686904D01*
X86780714Y-94544047D01*
X86828333Y-94448809D01*
G04 #@! TO.C,J7*
X139874666Y-97496380D02*
X139874666Y-98210666D01*
X139827047Y-98353523D01*
X139731809Y-98448761D01*
X139588952Y-98496380D01*
X139493714Y-98496380D01*
X140255619Y-97496380D02*
X140922285Y-97496380D01*
X140493714Y-98496380D01*
G04 #@! TO.C,R1*
X82637333Y-110180380D02*
X82304000Y-109704190D01*
X82065904Y-110180380D02*
X82065904Y-109180380D01*
X82446857Y-109180380D01*
X82542095Y-109228000D01*
X82589714Y-109275619D01*
X82637333Y-109370857D01*
X82637333Y-109513714D01*
X82589714Y-109608952D01*
X82542095Y-109656571D01*
X82446857Y-109704190D01*
X82065904Y-109704190D01*
X83589714Y-110180380D02*
X83018285Y-110180380D01*
X83304000Y-110180380D02*
X83304000Y-109180380D01*
X83208761Y-109323238D01*
X83113523Y-109418476D01*
X83018285Y-109466095D01*
G04 #@! TO.C,R2*
X146645333Y-84780380D02*
X146312000Y-84304190D01*
X146073904Y-84780380D02*
X146073904Y-83780380D01*
X146454857Y-83780380D01*
X146550095Y-83828000D01*
X146597714Y-83875619D01*
X146645333Y-83970857D01*
X146645333Y-84113714D01*
X146597714Y-84208952D01*
X146550095Y-84256571D01*
X146454857Y-84304190D01*
X146073904Y-84304190D01*
X147026285Y-83875619D02*
X147073904Y-83828000D01*
X147169142Y-83780380D01*
X147407238Y-83780380D01*
X147502476Y-83828000D01*
X147550095Y-83875619D01*
X147597714Y-83970857D01*
X147597714Y-84066095D01*
X147550095Y-84208952D01*
X146978666Y-84780380D01*
X147597714Y-84780380D01*
G04 #@! TO.C,R3*
X120229333Y-113736380D02*
X119896000Y-113260190D01*
X119657904Y-113736380D02*
X119657904Y-112736380D01*
X120038857Y-112736380D01*
X120134095Y-112784000D01*
X120181714Y-112831619D01*
X120229333Y-112926857D01*
X120229333Y-113069714D01*
X120181714Y-113164952D01*
X120134095Y-113212571D01*
X120038857Y-113260190D01*
X119657904Y-113260190D01*
X120562666Y-112736380D02*
X121181714Y-112736380D01*
X120848380Y-113117333D01*
X120991238Y-113117333D01*
X121086476Y-113164952D01*
X121134095Y-113212571D01*
X121181714Y-113307809D01*
X121181714Y-113545904D01*
X121134095Y-113641142D01*
X121086476Y-113688761D01*
X120991238Y-113736380D01*
X120705523Y-113736380D01*
X120610285Y-113688761D01*
X120562666Y-113641142D01*
G04 #@! TO.C,R4*
X146645333Y-88336380D02*
X146312000Y-87860190D01*
X146073904Y-88336380D02*
X146073904Y-87336380D01*
X146454857Y-87336380D01*
X146550095Y-87384000D01*
X146597714Y-87431619D01*
X146645333Y-87526857D01*
X146645333Y-87669714D01*
X146597714Y-87764952D01*
X146550095Y-87812571D01*
X146454857Y-87860190D01*
X146073904Y-87860190D01*
X147502476Y-87669714D02*
X147502476Y-88336380D01*
X147264380Y-87288761D02*
X147026285Y-88003047D01*
X147645333Y-88003047D01*
G04 #@! TO.C,R5*
X146645333Y-91892380D02*
X146312000Y-91416190D01*
X146073904Y-91892380D02*
X146073904Y-90892380D01*
X146454857Y-90892380D01*
X146550095Y-90940000D01*
X146597714Y-90987619D01*
X146645333Y-91082857D01*
X146645333Y-91225714D01*
X146597714Y-91320952D01*
X146550095Y-91368571D01*
X146454857Y-91416190D01*
X146073904Y-91416190D01*
X147550095Y-90892380D02*
X147073904Y-90892380D01*
X147026285Y-91368571D01*
X147073904Y-91320952D01*
X147169142Y-91273333D01*
X147407238Y-91273333D01*
X147502476Y-91320952D01*
X147550095Y-91368571D01*
X147597714Y-91463809D01*
X147597714Y-91701904D01*
X147550095Y-91797142D01*
X147502476Y-91844761D01*
X147407238Y-91892380D01*
X147169142Y-91892380D01*
X147073904Y-91844761D01*
X147026285Y-91797142D01*
G04 #@! TO.C,R6*
X146645333Y-95448380D02*
X146312000Y-94972190D01*
X146073904Y-95448380D02*
X146073904Y-94448380D01*
X146454857Y-94448380D01*
X146550095Y-94496000D01*
X146597714Y-94543619D01*
X146645333Y-94638857D01*
X146645333Y-94781714D01*
X146597714Y-94876952D01*
X146550095Y-94924571D01*
X146454857Y-94972190D01*
X146073904Y-94972190D01*
X147502476Y-94448380D02*
X147312000Y-94448380D01*
X147216761Y-94496000D01*
X147169142Y-94543619D01*
X147073904Y-94686476D01*
X147026285Y-94876952D01*
X147026285Y-95257904D01*
X147073904Y-95353142D01*
X147121523Y-95400761D01*
X147216761Y-95448380D01*
X147407238Y-95448380D01*
X147502476Y-95400761D01*
X147550095Y-95353142D01*
X147597714Y-95257904D01*
X147597714Y-95019809D01*
X147550095Y-94924571D01*
X147502476Y-94876952D01*
X147407238Y-94829333D01*
X147216761Y-94829333D01*
X147121523Y-94876952D01*
X147073904Y-94924571D01*
X147026285Y-95019809D01*
G04 #@! TO.C,R7*
X82637333Y-113736380D02*
X82304000Y-113260190D01*
X82065904Y-113736380D02*
X82065904Y-112736380D01*
X82446857Y-112736380D01*
X82542095Y-112784000D01*
X82589714Y-112831619D01*
X82637333Y-112926857D01*
X82637333Y-113069714D01*
X82589714Y-113164952D01*
X82542095Y-113212571D01*
X82446857Y-113260190D01*
X82065904Y-113260190D01*
X82970666Y-112736380D02*
X83637333Y-112736380D01*
X83208761Y-113736380D01*
G04 #@! TO.C,R8*
X102449333Y-113736380D02*
X102116000Y-113260190D01*
X101877904Y-113736380D02*
X101877904Y-112736380D01*
X102258857Y-112736380D01*
X102354095Y-112784000D01*
X102401714Y-112831619D01*
X102449333Y-112926857D01*
X102449333Y-113069714D01*
X102401714Y-113164952D01*
X102354095Y-113212571D01*
X102258857Y-113260190D01*
X101877904Y-113260190D01*
X103020761Y-113164952D02*
X102925523Y-113117333D01*
X102877904Y-113069714D01*
X102830285Y-112974476D01*
X102830285Y-112926857D01*
X102877904Y-112831619D01*
X102925523Y-112784000D01*
X103020761Y-112736380D01*
X103211238Y-112736380D01*
X103306476Y-112784000D01*
X103354095Y-112831619D01*
X103401714Y-112926857D01*
X103401714Y-112974476D01*
X103354095Y-113069714D01*
X103306476Y-113117333D01*
X103211238Y-113164952D01*
X103020761Y-113164952D01*
X102925523Y-113212571D01*
X102877904Y-113260190D01*
X102830285Y-113355428D01*
X102830285Y-113545904D01*
X102877904Y-113641142D01*
X102925523Y-113688761D01*
X103020761Y-113736380D01*
X103211238Y-113736380D01*
X103306476Y-113688761D01*
X103354095Y-113641142D01*
X103401714Y-113545904D01*
X103401714Y-113355428D01*
X103354095Y-113260190D01*
X103306476Y-113212571D01*
X103211238Y-113164952D01*
G04 #@! TO.C,J1*
X73834666Y-84796380D02*
X73834666Y-85510666D01*
X73787047Y-85653523D01*
X73691809Y-85748761D01*
X73548952Y-85796380D01*
X73453714Y-85796380D01*
X74834666Y-85796380D02*
X74263238Y-85796380D01*
X74548952Y-85796380D02*
X74548952Y-84796380D01*
X74453714Y-84939238D01*
X74358476Y-85034476D01*
X74263238Y-85082095D01*
G04 #@! TO.C,J2*
X108886666Y-115784380D02*
X108886666Y-116498666D01*
X108839047Y-116641523D01*
X108743809Y-116736761D01*
X108600952Y-116784380D01*
X108505714Y-116784380D01*
X109315238Y-115879619D02*
X109362857Y-115832000D01*
X109458095Y-115784380D01*
X109696190Y-115784380D01*
X109791428Y-115832000D01*
X109839047Y-115879619D01*
X109886666Y-115974857D01*
X109886666Y-116070095D01*
X109839047Y-116212952D01*
X109267619Y-116784380D01*
X109886666Y-116784380D01*
G04 #@! TO.C,J3*
X115998666Y-115784380D02*
X115998666Y-116498666D01*
X115951047Y-116641523D01*
X115855809Y-116736761D01*
X115712952Y-116784380D01*
X115617714Y-116784380D01*
X116379619Y-115784380D02*
X116998666Y-115784380D01*
X116665333Y-116165333D01*
X116808190Y-116165333D01*
X116903428Y-116212952D01*
X116951047Y-116260571D01*
X116998666Y-116355809D01*
X116998666Y-116593904D01*
X116951047Y-116689142D01*
X116903428Y-116736761D01*
X116808190Y-116784380D01*
X116522476Y-116784380D01*
X116427238Y-116736761D01*
X116379619Y-116689142D01*
G04 #@! TO.C,J4*
X150542666Y-85304380D02*
X150542666Y-86018666D01*
X150495047Y-86161523D01*
X150399809Y-86256761D01*
X150256952Y-86304380D01*
X150161714Y-86304380D01*
X151447428Y-85637714D02*
X151447428Y-86304380D01*
X151209333Y-85256761D02*
X150971238Y-85971047D01*
X151590285Y-85971047D01*
G04 #@! TO.C,J5*
X126158666Y-83780380D02*
X126158666Y-84494666D01*
X126111047Y-84637523D01*
X126015809Y-84732761D01*
X125872952Y-84780380D01*
X125777714Y-84780380D01*
X127111047Y-83780380D02*
X126634857Y-83780380D01*
X126587238Y-84256571D01*
X126634857Y-84208952D01*
X126730095Y-84161333D01*
X126968190Y-84161333D01*
X127063428Y-84208952D01*
X127111047Y-84256571D01*
X127158666Y-84351809D01*
X127158666Y-84589904D01*
X127111047Y-84685142D01*
X127063428Y-84732761D01*
X126968190Y-84780380D01*
X126730095Y-84780380D01*
X126634857Y-84732761D01*
X126587238Y-84685142D01*
G04 #@! TD*
M02*
