G04 #@! TF.GenerationSoftware,KiCad,Pcbnew,5.0.2-bee76a0~70~ubuntu14.04.1*
G04 #@! TF.CreationDate,2019-02-12T21:08:15+10:00*
G04 #@! TF.ProjectId,RS232Sniffer,52533233-3253-46e6-9966-6665722e6b69,rev?*
G04 #@! TF.SameCoordinates,Original*
G04 #@! TF.FileFunction,Copper,L1,Top*
G04 #@! TF.FilePolarity,Positive*
%FSLAX46Y46*%
G04 Gerber Fmt 4.6, Leading zero omitted, Abs format (unit mm)*
G04 Created by KiCad (PCBNEW 5.0.2-bee76a0~70~ubuntu14.04.1) date Tue 12 Feb 2019 21:08:15 AEST*
%MOMM*%
%LPD*%
G01*
G04 APERTURE LIST*
G04 #@! TA.AperFunction,ComponentPad*
%ADD10R,1.800000X1.800000*%
G04 #@! TD*
G04 #@! TA.AperFunction,ComponentPad*
%ADD11C,1.800000*%
G04 #@! TD*
G04 #@! TA.AperFunction,ComponentPad*
%ADD12R,1.700000X1.700000*%
G04 #@! TD*
G04 #@! TA.AperFunction,ComponentPad*
%ADD13O,1.700000X1.700000*%
G04 #@! TD*
G04 #@! TA.AperFunction,ComponentPad*
%ADD14O,1.600000X1.600000*%
G04 #@! TD*
G04 #@! TA.AperFunction,ComponentPad*
%ADD15C,1.600000*%
G04 #@! TD*
G04 #@! TA.AperFunction,ComponentPad*
%ADD16C,4.000000*%
G04 #@! TD*
G04 #@! TA.AperFunction,ComponentPad*
%ADD17R,1.600000X1.600000*%
G04 #@! TD*
G04 #@! TA.AperFunction,ViaPad*
%ADD18C,0.800000*%
G04 #@! TD*
G04 #@! TA.AperFunction,Conductor*
%ADD19C,1.000000*%
G04 #@! TD*
G04 #@! TA.AperFunction,Conductor*
%ADD20C,2.000000*%
G04 #@! TD*
G04 #@! TA.AperFunction,Conductor*
%ADD21C,1.500000*%
G04 #@! TD*
G04 APERTURE END LIST*
D10*
G04 #@! TO.P,D1,1*
G04 #@! TO.N,Net-(D1-Pad1)*
X92710000Y-98425000D03*
D11*
G04 #@! TO.P,D1,2*
G04 #@! TO.N,DCD*
X95250000Y-98425000D03*
G04 #@! TD*
G04 #@! TO.P,D2,2*
G04 #@! TO.N,Net-(D1-Pad1)*
X95250000Y-102870000D03*
D10*
G04 #@! TO.P,D2,1*
G04 #@! TO.N,DCD*
X92710000Y-102870000D03*
G04 #@! TD*
G04 #@! TO.P,D3,1*
G04 #@! TO.N,Net-(D3-Pad1)*
X113030000Y-98425000D03*
D11*
G04 #@! TO.P,D3,2*
G04 #@! TO.N,DSR*
X115570000Y-98425000D03*
G04 #@! TD*
G04 #@! TO.P,D4,2*
G04 #@! TO.N,Net-(D3-Pad1)*
X115570000Y-102870000D03*
D10*
G04 #@! TO.P,D4,1*
G04 #@! TO.N,DSR*
X113030000Y-102870000D03*
G04 #@! TD*
G04 #@! TO.P,D5,1*
G04 #@! TO.N,Net-(D5-Pad1)*
X107950000Y-98425000D03*
D11*
G04 #@! TO.P,D5,2*
G04 #@! TO.N,DTR*
X110490000Y-98425000D03*
G04 #@! TD*
G04 #@! TO.P,D6,2*
G04 #@! TO.N,Net-(D5-Pad1)*
X110490000Y-102870000D03*
D10*
G04 #@! TO.P,D6,1*
G04 #@! TO.N,DTR*
X107950000Y-102870000D03*
G04 #@! TD*
G04 #@! TO.P,D7,1*
G04 #@! TO.N,Net-(D7-Pad1)*
X118110000Y-98425000D03*
D11*
G04 #@! TO.P,D7,2*
G04 #@! TO.N,RTS*
X120650000Y-98425000D03*
G04 #@! TD*
G04 #@! TO.P,D8,2*
G04 #@! TO.N,Net-(D7-Pad1)*
X120650000Y-102870000D03*
D10*
G04 #@! TO.P,D8,1*
G04 #@! TO.N,RTS*
X118110000Y-102870000D03*
G04 #@! TD*
G04 #@! TO.P,D9,1*
G04 #@! TO.N,Net-(D10-Pad2)*
X123190000Y-98425000D03*
D11*
G04 #@! TO.P,D9,2*
G04 #@! TO.N,CTS*
X125730000Y-98425000D03*
G04 #@! TD*
G04 #@! TO.P,D10,2*
G04 #@! TO.N,Net-(D10-Pad2)*
X125730000Y-102870000D03*
D10*
G04 #@! TO.P,D10,1*
G04 #@! TO.N,CTS*
X123190000Y-102870000D03*
G04 #@! TD*
G04 #@! TO.P,D11,1*
G04 #@! TO.N,Net-(D11-Pad1)*
X128270000Y-98425000D03*
D11*
G04 #@! TO.P,D11,2*
G04 #@! TO.N,RI*
X130810000Y-98425000D03*
G04 #@! TD*
G04 #@! TO.P,D12,2*
G04 #@! TO.N,Net-(D11-Pad1)*
X130810000Y-102870000D03*
D10*
G04 #@! TO.P,D12,1*
G04 #@! TO.N,RI*
X128270000Y-102870000D03*
G04 #@! TD*
G04 #@! TO.P,D13,1*
G04 #@! TO.N,Net-(D13-Pad1)*
X97790000Y-98425000D03*
D11*
G04 #@! TO.P,D13,2*
G04 #@! TO.N,RX*
X100330000Y-98425000D03*
G04 #@! TD*
G04 #@! TO.P,D14,2*
G04 #@! TO.N,Net-(D13-Pad1)*
X100330000Y-102870000D03*
D10*
G04 #@! TO.P,D14,1*
G04 #@! TO.N,RX*
X97790000Y-102870000D03*
G04 #@! TD*
G04 #@! TO.P,D15,1*
G04 #@! TO.N,Net-(D15-Pad1)*
X102870000Y-98425000D03*
D11*
G04 #@! TO.P,D15,2*
G04 #@! TO.N,TX*
X105410000Y-98425000D03*
G04 #@! TD*
G04 #@! TO.P,D16,2*
G04 #@! TO.N,Net-(D15-Pad1)*
X105410000Y-102870000D03*
D10*
G04 #@! TO.P,D16,1*
G04 #@! TO.N,TX*
X102870000Y-102870000D03*
G04 #@! TD*
D12*
G04 #@! TO.P,J6,1*
G04 #@! TO.N,DCD*
X80010000Y-107315000D03*
D13*
G04 #@! TO.P,J6,2*
G04 #@! TO.N,RX*
X80010000Y-104775000D03*
G04 #@! TO.P,J6,3*
G04 #@! TO.N,TX*
X80010000Y-102235000D03*
G04 #@! TO.P,J6,4*
G04 #@! TO.N,DTR*
X80010000Y-99695000D03*
G04 #@! TO.P,J6,5*
G04 #@! TO.N,GND*
X80010000Y-97155000D03*
G04 #@! TO.P,J6,6*
G04 #@! TO.N,DSR*
X80010000Y-94615000D03*
G04 #@! TO.P,J6,7*
G04 #@! TO.N,RTS*
X80010000Y-92075000D03*
G04 #@! TO.P,J6,8*
G04 #@! TO.N,CTS*
X80010000Y-89535000D03*
G04 #@! TD*
D12*
G04 #@! TO.P,J7,1*
G04 #@! TO.N,RI*
X135128000Y-98552000D03*
D13*
G04 #@! TO.P,J7,2*
G04 #@! TO.N,GND*
X137668000Y-98552000D03*
G04 #@! TD*
D14*
G04 #@! TO.P,R1,2*
G04 #@! TO.N,Net-(D1-Pad1)*
X95504000Y-109728000D03*
D15*
G04 #@! TO.P,R1,1*
G04 #@! TO.N,GND*
X85344000Y-109728000D03*
G04 #@! TD*
G04 #@! TO.P,R2,1*
G04 #@! TO.N,GND*
X144272000Y-84328000D03*
D14*
G04 #@! TO.P,R2,2*
G04 #@! TO.N,Net-(D3-Pad1)*
X134112000Y-84328000D03*
G04 #@! TD*
G04 #@! TO.P,R3,2*
G04 #@! TO.N,Net-(D5-Pad1)*
X122936000Y-113284000D03*
D15*
G04 #@! TO.P,R3,1*
G04 #@! TO.N,GND*
X133096000Y-113284000D03*
G04 #@! TD*
G04 #@! TO.P,R4,1*
G04 #@! TO.N,GND*
X144272000Y-87884000D03*
D14*
G04 #@! TO.P,R4,2*
G04 #@! TO.N,Net-(D7-Pad1)*
X134112000Y-87884000D03*
G04 #@! TD*
D15*
G04 #@! TO.P,R5,1*
G04 #@! TO.N,GND*
X144272000Y-91440000D03*
D14*
G04 #@! TO.P,R5,2*
G04 #@! TO.N,Net-(D10-Pad2)*
X134112000Y-91440000D03*
G04 #@! TD*
G04 #@! TO.P,R6,2*
G04 #@! TO.N,Net-(D11-Pad1)*
X134112000Y-94996000D03*
D15*
G04 #@! TO.P,R6,1*
G04 #@! TO.N,GND*
X144272000Y-94996000D03*
G04 #@! TD*
D14*
G04 #@! TO.P,R7,2*
G04 #@! TO.N,Net-(D13-Pad1)*
X95504000Y-113284000D03*
D15*
G04 #@! TO.P,R7,1*
G04 #@! TO.N,GND*
X85344000Y-113284000D03*
G04 #@! TD*
G04 #@! TO.P,R8,1*
G04 #@! TO.N,GND*
X115316000Y-113284000D03*
D14*
G04 #@! TO.P,R8,2*
G04 #@! TO.N,Net-(D15-Pad1)*
X105156000Y-113284000D03*
G04 #@! TD*
D12*
G04 #@! TO.P,SW1,1*
G04 #@! TO.N,Net-(J4-Pad1)*
X88773000Y-76835000D03*
D13*
G04 #@! TO.P,SW1,2*
G04 #@! TO.N,DCD*
X86233000Y-76835000D03*
G04 #@! TO.P,SW1,3*
G04 #@! TO.N,DSR*
X83693000Y-76835000D03*
G04 #@! TD*
D16*
G04 #@! TO.P,J1,0*
G04 #@! TO.N,Earth*
X69804000Y-112624000D03*
X69804000Y-87624000D03*
D15*
G04 #@! TO.P,J1,9*
G04 #@! TO.N,RI*
X67264000Y-95969000D03*
G04 #@! TO.P,J1,8*
G04 #@! TO.N,CTS*
X67264000Y-98739000D03*
G04 #@! TO.P,J1,7*
G04 #@! TO.N,RTS*
X67264000Y-101509000D03*
G04 #@! TO.P,J1,6*
G04 #@! TO.N,DSR*
X67264000Y-104279000D03*
G04 #@! TO.P,J1,5*
G04 #@! TO.N,GND*
X70104000Y-94584000D03*
G04 #@! TO.P,J1,4*
G04 #@! TO.N,DTR*
X70104000Y-97354000D03*
G04 #@! TO.P,J1,3*
G04 #@! TO.N,TX*
X70104000Y-100124000D03*
G04 #@! TO.P,J1,2*
G04 #@! TO.N,RX*
X70104000Y-102894000D03*
D17*
G04 #@! TO.P,J1,1*
G04 #@! TO.N,DCD*
X70104000Y-105664000D03*
G04 #@! TD*
G04 #@! TO.P,J2,1*
G04 #@! TO.N,N/C*
X100584000Y-120396000D03*
D15*
G04 #@! TO.P,J2,2*
G04 #@! TO.N,RX*
X97814000Y-120396000D03*
G04 #@! TO.P,J2,3*
G04 #@! TO.N,N/C*
X95044000Y-120396000D03*
G04 #@! TO.P,J2,4*
X92274000Y-120396000D03*
G04 #@! TO.P,J2,5*
G04 #@! TO.N,GND*
X89504000Y-120396000D03*
G04 #@! TO.P,J2,6*
G04 #@! TO.N,N/C*
X99199000Y-123236000D03*
G04 #@! TO.P,J2,7*
X96429000Y-123236000D03*
G04 #@! TO.P,J2,8*
X93659000Y-123236000D03*
G04 #@! TO.P,J2,9*
X90889000Y-123236000D03*
D16*
G04 #@! TO.P,J2,0*
G04 #@! TO.N,Earth*
X82544000Y-120696000D03*
X107544000Y-120696000D03*
G04 #@! TD*
G04 #@! TO.P,J3,0*
G04 #@! TO.N,Earth*
X143104000Y-120696000D03*
X118104000Y-120696000D03*
D15*
G04 #@! TO.P,J3,9*
G04 #@! TO.N,N/C*
X126449000Y-123236000D03*
G04 #@! TO.P,J3,8*
X129219000Y-123236000D03*
G04 #@! TO.P,J3,7*
X131989000Y-123236000D03*
G04 #@! TO.P,J3,6*
X134759000Y-123236000D03*
G04 #@! TO.P,J3,5*
G04 #@! TO.N,GND*
X125064000Y-120396000D03*
G04 #@! TO.P,J3,4*
G04 #@! TO.N,N/C*
X127834000Y-120396000D03*
G04 #@! TO.P,J3,3*
X130604000Y-120396000D03*
G04 #@! TO.P,J3,2*
G04 #@! TO.N,TX*
X133374000Y-120396000D03*
D17*
G04 #@! TO.P,J3,1*
G04 #@! TO.N,N/C*
X136144000Y-120396000D03*
G04 #@! TD*
G04 #@! TO.P,J4,1*
G04 #@! TO.N,Net-(J4-Pad1)*
X154940000Y-105664000D03*
D15*
G04 #@! TO.P,J4,2*
G04 #@! TO.N,RX*
X154940000Y-102894000D03*
G04 #@! TO.P,J4,3*
G04 #@! TO.N,TX*
X154940000Y-100124000D03*
G04 #@! TO.P,J4,4*
G04 #@! TO.N,DTR*
X154940000Y-97354000D03*
G04 #@! TO.P,J4,5*
G04 #@! TO.N,GND*
X154940000Y-94584000D03*
G04 #@! TO.P,J4,6*
G04 #@! TO.N,DSR*
X157780000Y-104279000D03*
G04 #@! TO.P,J4,7*
G04 #@! TO.N,RTS*
X157780000Y-101509000D03*
G04 #@! TO.P,J4,8*
G04 #@! TO.N,CTS*
X157780000Y-98739000D03*
G04 #@! TO.P,J4,9*
G04 #@! TO.N,RI*
X157780000Y-95969000D03*
D16*
G04 #@! TO.P,J4,0*
G04 #@! TO.N,Earth*
X155240000Y-112624000D03*
X155240000Y-87624000D03*
G04 #@! TD*
D17*
G04 #@! TO.P,J5,1*
G04 #@! TO.N,DTR*
X106680000Y-80264000D03*
D15*
G04 #@! TO.P,J5,2*
G04 #@! TO.N,TX*
X109450000Y-80264000D03*
G04 #@! TO.P,J5,3*
G04 #@! TO.N,RX*
X112220000Y-80264000D03*
G04 #@! TO.P,J5,4*
G04 #@! TO.N,DSR*
X114990000Y-80264000D03*
G04 #@! TO.P,J5,5*
G04 #@! TO.N,GND*
X117760000Y-80264000D03*
G04 #@! TO.P,J5,6*
G04 #@! TO.N,DTR*
X108065000Y-77424000D03*
G04 #@! TO.P,J5,7*
G04 #@! TO.N,CTS*
X110835000Y-77424000D03*
G04 #@! TO.P,J5,8*
G04 #@! TO.N,RTS*
X113605000Y-77424000D03*
G04 #@! TO.P,J5,9*
G04 #@! TO.N,RI*
X116375000Y-77424000D03*
D16*
G04 #@! TO.P,J5,0*
G04 #@! TO.N,Earth*
X124720000Y-79964000D03*
X99720000Y-79964000D03*
G04 #@! TD*
D18*
G04 #@! TO.N,DCD*
X85924176Y-81788000D03*
X87376000Y-85344000D03*
G04 #@! TO.N,DSR*
X105156000Y-93224969D03*
X83820000Y-93224969D03*
X82843001Y-84836000D03*
G04 #@! TO.N,RTS*
X109728000Y-91225001D03*
X121758140Y-84836000D03*
X146280621Y-98020621D03*
G04 #@! TO.N,DTR*
X112268000Y-84328000D03*
X101600000Y-94424979D03*
G04 #@! TO.N,CTS*
X111252000Y-89535000D03*
X126016001Y-82664001D03*
X124676001Y-75923999D03*
X75692000Y-85344000D03*
G04 #@! TO.N,RX*
X96520000Y-96824999D03*
G04 #@! TO.N,TX*
X129032000Y-108795011D03*
X99060000Y-95624989D03*
X111760000Y-82804000D03*
G04 #@! TO.N,Earth*
X138684000Y-79964000D03*
X85344000Y-79964000D03*
G04 #@! TD*
D19*
G04 #@! TO.N,GND*
X70104000Y-94584000D02*
X70903999Y-95383999D01*
X78238999Y-95383999D02*
X79160001Y-96305001D01*
X70903999Y-95383999D02*
X78238999Y-95383999D01*
G04 #@! TO.N,DCD*
X78359000Y-105664000D02*
X80010000Y-107315000D01*
X70104000Y-105664000D02*
X78359000Y-105664000D01*
X95250000Y-100330000D02*
X95250000Y-98425000D01*
X92710000Y-102870000D02*
X95250000Y-100330000D01*
X86305000Y-102870000D02*
X92710000Y-102870000D01*
X81860000Y-107315000D02*
X86305000Y-102870000D01*
X80010000Y-107315000D02*
X81860000Y-107315000D01*
X85924176Y-83892176D02*
X87376000Y-85344000D01*
X85924176Y-81788000D02*
X85924176Y-83892176D01*
G04 #@! TO.N,DSR*
X115570000Y-97152208D02*
X115570000Y-98425000D01*
X111642761Y-93224969D02*
X115570000Y-97152208D01*
X81400031Y-93224969D02*
X83820000Y-93224969D01*
X80010000Y-94615000D02*
X81400031Y-93224969D01*
X115570000Y-100330000D02*
X113030000Y-102870000D01*
X115570000Y-98425000D02*
X115570000Y-100330000D01*
X104140000Y-93224969D02*
X105156000Y-93224969D01*
X105156000Y-93224969D02*
X111642761Y-93224969D01*
X84328000Y-93224969D02*
X104140000Y-93224969D01*
X83820000Y-93224969D02*
X84328000Y-93224969D01*
X82843001Y-77684999D02*
X83693000Y-76835000D01*
X82843001Y-84836000D02*
X82843001Y-77684999D01*
G04 #@! TO.N,RTS*
X120650000Y-97152208D02*
X120650000Y-98425000D01*
X114722793Y-91225001D02*
X120650000Y-97152208D01*
X80859999Y-91225001D02*
X107188000Y-91225001D01*
X80010000Y-92075000D02*
X80859999Y-91225001D01*
X120650000Y-100330000D02*
X118110000Y-102870000D01*
X120650000Y-98425000D02*
X120650000Y-100330000D01*
X107188000Y-91225001D02*
X114722793Y-91225001D01*
X121589999Y-104330001D02*
X121729999Y-104470001D01*
X123092931Y-104470001D02*
X124292941Y-105670011D01*
X138631231Y-105670011D02*
X146280621Y-98020621D01*
X124292941Y-105670011D02*
X138631231Y-105670011D01*
X119881999Y-104470001D02*
X121418001Y-104470001D01*
X121589999Y-104298003D02*
X121589999Y-104330001D01*
X121418001Y-104470001D02*
X121589999Y-104298003D01*
X119049999Y-103638001D02*
X119881999Y-104470001D01*
X118110000Y-102870000D02*
X119049999Y-102870000D01*
X119049999Y-102870000D02*
X119049999Y-103638001D01*
X121729999Y-104470001D02*
X123092931Y-104470001D01*
X121758140Y-79621516D02*
X121758140Y-80587138D01*
X118060623Y-75923999D02*
X121758140Y-79621516D01*
X115105001Y-75923999D02*
X118060623Y-75923999D01*
X121758140Y-80587138D02*
X121758140Y-84836000D01*
X113605000Y-77424000D02*
X115105001Y-75923999D01*
G04 #@! TO.N,DTR*
X77669000Y-97354000D02*
X80010000Y-99695000D01*
X70104000Y-97354000D02*
X77669000Y-97354000D01*
X110490000Y-97152208D02*
X110490000Y-98425000D01*
X107762771Y-94424979D02*
X110490000Y-97152208D01*
X86482102Y-94424979D02*
X101600000Y-94424979D01*
X81212081Y-99695000D02*
X86482102Y-94424979D01*
X80010000Y-99695000D02*
X81212081Y-99695000D01*
X144698999Y-107595001D02*
X154140001Y-98153999D01*
X110775001Y-107595001D02*
X144698999Y-107595001D01*
X154140001Y-98153999D02*
X154940000Y-97354000D01*
X107950000Y-104770000D02*
X110775001Y-107595001D01*
X107950000Y-102870000D02*
X107950000Y-104770000D01*
X110490000Y-100330000D02*
X107950000Y-102870000D01*
X110490000Y-98425000D02*
X110490000Y-100330000D01*
X101600000Y-94424979D02*
X107762771Y-94424979D01*
X106680000Y-78809000D02*
X108065000Y-77424000D01*
X106680000Y-80264000D02*
X106680000Y-78809000D01*
X110744000Y-84328000D02*
X106680000Y-80264000D01*
X112268000Y-84328000D02*
X110744000Y-84328000D01*
G04 #@! TO.N,CTS*
X125730000Y-100330000D02*
X123190000Y-102870000D01*
X125730000Y-98425000D02*
X125730000Y-100330000D01*
X118112792Y-89535000D02*
X125730000Y-97152208D01*
X125730000Y-97152208D02*
X125730000Y-98425000D01*
X80010000Y-89535000D02*
X109728000Y-89535000D01*
X109728000Y-89535000D02*
X111252000Y-89535000D01*
X111252000Y-89535000D02*
X118112792Y-89535000D01*
X67264000Y-98739000D02*
X65024000Y-96499000D01*
X65024000Y-96499000D02*
X65024000Y-86868000D01*
X65024000Y-86868000D02*
X68072000Y-83820000D01*
X68072000Y-83820000D02*
X74168000Y-83820000D01*
X74168000Y-83820000D02*
X75692000Y-85344000D01*
X126416000Y-82264002D02*
X126016001Y-82664001D01*
X127420001Y-78667999D02*
X127420001Y-81260001D01*
X127420001Y-81260001D02*
X126416000Y-82264002D01*
X124676001Y-75923999D02*
X127420001Y-78667999D01*
X159280001Y-95248999D02*
X159280001Y-97238999D01*
X158579999Y-97939001D02*
X157780000Y-98739000D01*
X138134171Y-104470000D02*
X149732173Y-92871998D01*
X124790000Y-104470000D02*
X138134171Y-104470000D01*
X149732173Y-92871998D02*
X156903000Y-92871998D01*
X156903000Y-92871998D02*
X159280001Y-95248999D01*
X159280001Y-97238999D02*
X158579999Y-97939001D01*
X123190000Y-102870000D02*
X124790000Y-104470000D01*
G04 #@! TO.N,RI*
X130810000Y-100330000D02*
X128270000Y-102870000D01*
X130810000Y-98425000D02*
X130810000Y-100330000D01*
D20*
X135001000Y-98425000D02*
X135128000Y-98552000D01*
X130810000Y-98425000D02*
X135001000Y-98425000D01*
X130810000Y-97152208D02*
X130810000Y-98425000D01*
X130810000Y-97084000D02*
X130810000Y-97152208D01*
X121102000Y-87376000D02*
X130810000Y-97084000D01*
X67264000Y-95969000D02*
X67264000Y-93772000D01*
D19*
X119260001Y-86987999D02*
X118872000Y-87376000D01*
D21*
X119888000Y-79801998D02*
X119888000Y-87376000D01*
X117510002Y-77424000D02*
X119888000Y-79801998D01*
X116375000Y-77424000D02*
X117510002Y-77424000D01*
D20*
X119888000Y-87376000D02*
X121102000Y-87376000D01*
X118872000Y-87376000D02*
X119888000Y-87376000D01*
X67264000Y-93772000D02*
X68580000Y-92456000D01*
X71628000Y-92456000D02*
X76708000Y-87376000D01*
X68580000Y-92456000D02*
X71628000Y-92456000D01*
X76708000Y-87376000D02*
X118872000Y-87376000D01*
D19*
G04 #@! TO.N,RX*
X78129000Y-102894000D02*
X80010000Y-104775000D01*
X70104000Y-102894000D02*
X78129000Y-102894000D01*
X100330000Y-97152208D02*
X100330000Y-98425000D01*
X100002791Y-96824999D02*
X100330000Y-97152208D01*
X81212081Y-104775000D02*
X89162082Y-96824999D01*
X89162082Y-96824999D02*
X96520000Y-96824999D01*
X80010000Y-104775000D02*
X81212081Y-104775000D01*
X154140001Y-103693999D02*
X154940000Y-102894000D01*
X103015021Y-109995021D02*
X147838979Y-109995021D01*
X147838979Y-109995021D02*
X154140001Y-103693999D01*
X97790000Y-104770000D02*
X103015021Y-109995021D01*
X97790000Y-102870000D02*
X97790000Y-104770000D01*
X99290001Y-113720041D02*
X103015021Y-109995021D01*
X99290001Y-118919999D02*
X99290001Y-113720041D01*
X97814000Y-120396000D02*
X99290001Y-118919999D01*
X100330000Y-100330000D02*
X97790000Y-102870000D01*
X100330000Y-98425000D02*
X100330000Y-100330000D01*
X96520000Y-96824999D02*
X100002791Y-96824999D01*
G04 #@! TO.N,TX*
X79160001Y-101385001D02*
X80010000Y-102235000D01*
X78698999Y-100923999D02*
X79160001Y-101385001D01*
X70903999Y-100923999D02*
X78698999Y-100923999D01*
X70104000Y-100124000D02*
X70903999Y-100923999D01*
X105410000Y-97152208D02*
X105410000Y-98425000D01*
X103882781Y-95624989D02*
X105410000Y-97152208D01*
X87822092Y-95624989D02*
X99060000Y-95624989D01*
X81212081Y-102235000D02*
X87822092Y-95624989D01*
X80010000Y-102235000D02*
X81212081Y-102235000D01*
X154140001Y-100923999D02*
X154940000Y-100124000D01*
X146268989Y-108795011D02*
X154140001Y-100923999D01*
X102870000Y-104770000D02*
X106895011Y-108795011D01*
X106895011Y-108795011D02*
X129032000Y-108795011D01*
X102870000Y-102870000D02*
X102870000Y-104770000D01*
X129032000Y-108795011D02*
X146268989Y-108795011D01*
X105410000Y-100330000D02*
X102870000Y-102870000D01*
X105410000Y-98425000D02*
X105410000Y-100330000D01*
X99060000Y-95624989D02*
X103882781Y-95624989D01*
X109450000Y-80494000D02*
X111760000Y-82804000D01*
X109450000Y-80264000D02*
X109450000Y-80494000D01*
G04 #@! TO.N,Net-(J4-Pad1)*
X88773000Y-76835000D02*
X90623000Y-76835000D01*
X90623000Y-76835000D02*
X92734011Y-74723989D01*
X156740000Y-105664000D02*
X154940000Y-105664000D01*
X92734011Y-74723989D02*
X142795989Y-74723989D01*
X142795989Y-74723989D02*
X152995999Y-84923999D01*
X161036000Y-105664000D02*
X159512000Y-107188000D01*
X152995999Y-84923999D02*
X157059999Y-84923999D01*
X158264000Y-107188000D02*
X156740000Y-105664000D01*
X157059999Y-84923999D02*
X161036000Y-88900000D01*
X161036000Y-88900000D02*
X161036000Y-105664000D01*
X159512000Y-107188000D02*
X158264000Y-107188000D01*
D20*
G04 #@! TO.N,Earth*
X99720000Y-79964000D02*
X85344000Y-79964000D01*
X77876000Y-120696000D02*
X69804000Y-112624000D01*
X82544000Y-120696000D02*
X77876000Y-120696000D01*
X147168000Y-120696000D02*
X155240000Y-112624000D01*
X143104000Y-120696000D02*
X147168000Y-120696000D01*
X152411573Y-87624000D02*
X155240000Y-87624000D01*
X145151572Y-80363999D02*
X152411573Y-87624000D01*
X139083999Y-80363999D02*
X145151572Y-80363999D01*
X138684000Y-79964000D02*
X139083999Y-80363999D01*
G04 #@! TD*
M02*
