M48
METRIC,TZ
T1C0.400
T2C0.800
T3C0.900
T4C1.000
T5C3.200
%
G90
G05
T1
X75692Y-85344
X82843Y-84836
X83820Y-93225
X85344Y-79964
X85924Y-81788
X87376Y-85344
X96520Y-96825
X99060Y-95625
X101600Y-94425
X105156Y-93225
X109728Y-91225
X111252Y-89535
X111760Y-82804
X112268Y-84328
X121758Y-84836
X124676Y-75924
X126016Y-82664
X129032Y-108795
X138684Y-79964
X146281Y-98021
T2
X85344Y-113284
X95504Y-113284
X134112Y-84328
X144272Y-84328
X134112Y-91440
X144272Y-91440
X134112Y-94996
X144272Y-94996
X134112Y-87884
X144272Y-87884
X105156Y-113284
X115316Y-113284
X122936Y-113284
X133096Y-113284
X85344Y-109728
X95504Y-109728
T3
X107950Y-98425
X110490Y-98425
X118110Y-98425
X120650Y-98425
X92710Y-98425
X95250Y-98425
X97790Y-98425
X100330Y-98425
X113030Y-102870
X115570Y-102870
X107950Y-102870
X110490Y-102870
X97790Y-102870
X100330Y-102870
X128270Y-98425
X130810Y-98425
X118110Y-102870
X120650Y-102870
X123190Y-102870
X125730Y-102870
X92710Y-102870
X95250Y-102870
X123190Y-98425
X125730Y-98425
X128270Y-102870
X130810Y-102870
X113030Y-98425
X115570Y-98425
X102870Y-102870
X105410Y-102870
X102870Y-98425
X105410Y-98425
T4
X80010Y-89535
X80010Y-92075
X80010Y-94615
X80010Y-97155
X80010Y-99695
X80010Y-102235
X80010Y-104775
X80010Y-107315
X67264Y-95969
X67264Y-98739
X67264Y-101509
X67264Y-104279
X70104Y-94584
X70104Y-97354
X70104Y-100124
X70104Y-102894
X70104Y-105664
X154940Y-94584
X154940Y-97354
X154940Y-100124
X154940Y-102894
X154940Y-105664
X157780Y-95969
X157780Y-98739
X157780Y-101509
X157780Y-104279
X125064Y-120396
X126449Y-123236
X127834Y-120396
X129219Y-123236
X130604Y-120396
X131989Y-123236
X133374Y-120396
X134759Y-123236
X136144Y-120396
X89504Y-120396
X90889Y-123236
X92274Y-120396
X93659Y-123236
X95044Y-120396
X96429Y-123236
X97814Y-120396
X99199Y-123236
X100584Y-120396
X135128Y-98552
X137668Y-98552
X106680Y-80264
X108065Y-77424
X109450Y-80264
X110835Y-77424
X112220Y-80264
X113605Y-77424
X114990Y-80264
X116375Y-77424
X117760Y-80264
X83693Y-76835
X86233Y-76835
X88773Y-76835
T5
X69804Y-87624
X69804Y-112624
X155240Y-87624
X155240Y-112624
X118104Y-120696
X143104Y-120696
X82544Y-120696
X107544Y-120696
X99720Y-79964
X124720Y-79964
T0
M30
