G04 #@! TF.GenerationSoftware,KiCad,Pcbnew,5.0.2-bee76a0~70~ubuntu14.04.1*
G04 #@! TF.CreationDate,2019-02-12T21:08:15+10:00*
G04 #@! TF.ProjectId,RS232Sniffer,52533233-3253-46e6-9966-6665722e6b69,rev?*
G04 #@! TF.SameCoordinates,Original*
G04 #@! TF.FileFunction,Legend,Bot*
G04 #@! TF.FilePolarity,Positive*
%FSLAX46Y46*%
G04 Gerber Fmt 4.6, Leading zero omitted, Abs format (unit mm)*
G04 Created by KiCad (PCBNEW 5.0.2-bee76a0~70~ubuntu14.04.1) date Tue 12 Feb 2019 21:08:15 AEST*
%MOMM*%
%LPD*%
G01*
G04 APERTURE LIST*
%ADD10C,0.120000*%
%ADD11C,0.150000*%
G04 APERTURE END LIST*
D10*
G04 #@! TO.C,JP1*
X67756000Y-92948000D02*
G75*
G03X68456000Y-92248000I0J700000D01*
G01*
X68456000Y-91648000D02*
G75*
G03X67756000Y-90948000I-700000J0D01*
G01*
X66356000Y-90948000D02*
G75*
G03X65656000Y-91648000I0J-700000D01*
G01*
X65656000Y-92248000D02*
G75*
G03X66356000Y-92948000I700000J0D01*
G01*
X65656000Y-91648000D02*
X65656000Y-92248000D01*
X67756000Y-90948000D02*
X66356000Y-90948000D01*
X68456000Y-92248000D02*
X68456000Y-91648000D01*
X66356000Y-92948000D02*
X67756000Y-92948000D01*
D11*
X70937333Y-91400380D02*
X70937333Y-92114666D01*
X70984952Y-92257523D01*
X71080190Y-92352761D01*
X71223047Y-92400380D01*
X71318285Y-92400380D01*
X70461142Y-92400380D02*
X70461142Y-91400380D01*
X70080190Y-91400380D01*
X69984952Y-91448000D01*
X69937333Y-91495619D01*
X69889714Y-91590857D01*
X69889714Y-91733714D01*
X69937333Y-91828952D01*
X69984952Y-91876571D01*
X70080190Y-91924190D01*
X70461142Y-91924190D01*
X68937333Y-92400380D02*
X69508761Y-92400380D01*
X69223047Y-92400380D02*
X69223047Y-91400380D01*
X69318285Y-91543238D01*
X69413523Y-91638476D01*
X69508761Y-91686095D01*
G04 #@! TD*
M02*
